<svg xmlns="http://www.w3.org/2000/svg" width="1600" height="646" version="1.1">
<style type="text/css">
.l0{
 fill: #ffffff;
  stroke: #ffffff;
  stroke-linecap:round;
  stroke-linejoin:round;
  stroke-width: 0.589844;
}
.l1{
 fill: #0044ee;
  stroke: #0044ee;
  stroke-linecap:round;
  stroke-linejoin:round;
  stroke-width: 0.589844;
}
.l2{
  fill: none;
  stroke: #aaaaaa;
  stroke-linecap:round;
  stroke-linejoin:round;
  stroke-width: 0.589844;
}
.l3{
 fill: #222222; fill-opacity: 0.5;
  stroke: #222222;
  stroke-linecap:round;
  stroke-linejoin:round;
  stroke-width: 0.589844;
}
.l4{
 fill: #229900;
  stroke: #229900;
  stroke-linecap:round;
  stroke-linejoin:round;
  stroke-width: 0.589844;
}
.l5{
 fill: #bb2200;
  stroke: #bb2200;
  stroke-linecap:round;
  stroke-linejoin:round;
  stroke-width: 0.589844;
}
.l6{
 fill: #00ccee; fill-opacity: 0.5;
  stroke: #00ccee;
  stroke-linecap:round;
  stroke-linejoin:round;
  stroke-width: 0.589844;
}
.l7{
 fill: #ff0000; fill-opacity: 0.5;
  stroke: #ff0000;
  stroke-linecap:round;
  stroke-linejoin:round;
  stroke-width: 0.589844;
}
.l8{
 fill: #888800; fill-opacity: 0.5;
  stroke: #888800;
  stroke-linecap:round;
  stroke-linejoin:round;
  stroke-width: 0.589844;
}
.l9{
 fill: #00aaaa; fill-opacity: 0.5;
  stroke: #00aaaa;
  stroke-linecap:round;
  stroke-linejoin:round;
  stroke-width: 0.589844;
}
.l10{
 fill: #880088;
  stroke: #880088;
  stroke-linecap:round;
  stroke-linejoin:round;
  stroke-width: 0.589844;
}
.l11{
 fill: #00ff00; fill-opacity: 0.5;
  stroke: #00ff00;
  stroke-linecap:round;
  stroke-linejoin:round;
  stroke-width: 0.589844;
}
.l12{
 fill: #0000cc; fill-opacity: 0.5;
  stroke: #0000cc;
  stroke-linecap:round;
  stroke-linejoin:round;
  stroke-width: 0.589844;
}
.l13{
 fill: #666600; fill-opacity: 0.5;
  stroke: #666600;
  stroke-linecap:round;
  stroke-linejoin:round;
  stroke-width: 0.589844;
}
.l14{
  fill: none;
  stroke: #557755;
  stroke-linecap:round;
  stroke-linejoin:round;
  stroke-width: 0.589844;
}
.l15{
 fill: #aa2222; fill-opacity: 0.5;
  stroke: #aa2222;
  stroke-linecap:round;
  stroke-linejoin:round;
  stroke-width: 0.589844;
}
.l16{
 fill: #7ccc40; fill-opacity: 0.5;
  stroke: #7ccc40;
  stroke-linecap:round;
  stroke-linejoin:round;
  stroke-width: 0.589844;
}
.l17{
  fill: none;
  stroke: #00ffcc;
  stroke-linecap:round;
  stroke-linejoin:round;
  stroke-width: 0.589844;
}
.l18{
 fill: #ce0097; fill-opacity: 0.5;
  stroke: #ce0097;
  stroke-linecap:round;
  stroke-linejoin:round;
  stroke-width: 0.589844;
}
.l19{
  fill: none;
  stroke: #d2d46b;
  stroke-linecap:round;
  stroke-linejoin:round;
  stroke-width: 0.589844;
}
.l20{
  fill: none;
  stroke: #ef6158;
  stroke-linecap:round;
  stroke-linejoin:round;
  stroke-width: 0.589844;
}
.l21{
  fill: none;
  stroke: #fdb200;
  stroke-linecap:round;
  stroke-linejoin:round;
  stroke-width: 0.589844;
}
text {font-family: Sans-Serif;}
</style>
<rect class="l0" x="0" y="0" width="1600" height="646"/>
<text fill="#0044ee"  xml:space="preserve" font-size="18.7439" transform="translate(622.324, 169.557)" >VPWR</text>
<text fill="#0044ee"  xml:space="preserve" font-size="18.7439" transform="translate(862.631, 169.557)" >VPWR</text>
<text fill="#0044ee"  xml:space="preserve" font-size="18.7439" transform="translate(622.324, 355.248)" >VPWR</text>
<text fill="#0044ee"  xml:space="preserve" font-size="18.7439" transform="translate(622.324, 464.479)" >VGND</text>
<text fill="#0044ee"  xml:space="preserve" font-size="18.7439" transform="translate(731.555, 464.479)" >VGND</text>
<text fill="#0044ee"  xml:space="preserve" font-size="18.7439" transform="translate(862.631, 464.479)" >VGND</text>
<text fill="#0044ee"  xml:space="preserve" font-size="18.7439" transform="translate(622.324, 289.71)" >VGND</text>
<text fill="#0044ee"  xml:space="preserve" font-size="15.336" transform="translate(583.324, 221.92)" >inp</text>
<text fill="#0044ee"  xml:space="preserve" font-size="15.336" transform="translate(583.324, 396.688)" >inn</text>
<text fill="#0044ee"  xml:space="preserve" font-size="15.336" transform="translate(965.554, 221.92)" >outp</text>
<text fill="#0044ee"  xml:space="preserve" font-size="15.336" transform="translate(965.554, 396.688)" >outn</text>
<text fill="#0044ee"  xml:space="preserve" font-size="18.7439" transform="translate(806.499, 529.334)" >VGND</text>
<text fill="#0044ee"  xml:space="preserve" font-size="18.7439" transform="translate(806.499, 114.259)" >VPWR</text>
<text fill="#0044ee"  xml:space="preserve" font-size="15.336" transform="translate(714.247, 101.766)" >VPWR</text>
<text fill="#0044ee"  xml:space="preserve" font-size="15.336" transform="translate(715.247, 516.842)" >VGND</text>
<text fill="#0044ee"  xml:space="preserve" font-size="18.7439" transform="translate(731.555, 169.557)" >VPWR</text>
<text fill="#0044ee"  xml:space="preserve" font-size="18.7439" transform="translate(1030.42, 234.412)" >outp</text>
<text fill="#0044ee"  xml:space="preserve" font-size="18.7439" transform="translate(1030.42, 409.181)" >outn</text>
<text fill="#0044ee"  xml:space="preserve" font-size="18.7439" transform="translate(532.072, 232.028)" >inp</text>
<text fill="#0044ee"  xml:space="preserve" font-size="18.7439" transform="translate(532.072, 406.797)" >inn</text>
<text fill="#0044ee"  xml:space="preserve" font-size="18.7439" transform="translate(1253.8, 321.796)" >A</text>
<text fill="#0044ee"  xml:space="preserve" font-size="18.7439" transform="translate(1390.88, 196.181)" >VPWR</text>
<text fill="#0044ee"  xml:space="preserve" font-size="18.7439" transform="translate(1390.88, 447.411)" >VGND</text>
<text fill="#0044ee"  xml:space="preserve" font-size="18.7439" transform="translate(1445.67, 321.796)" >Y</text>
<text fill="#0044ee"  xml:space="preserve" font-size="18.7439" transform="translate(33.6529, 414.642)" >input</text>
<text fill="#0044ee"  xml:space="preserve" font-size="11.36" transform="translate(268.71, 559.495)" >GND</text>
<text fill="#222222"  xml:space="preserve" font-size="11.36" transform="translate(648.286, 221.973)" >A</text>
<text fill="#222222"  xml:space="preserve" font-size="11.36" transform="translate(718.112, 221.973)" >Y</text>
<text fill="#222222"  xml:space="preserve" font-size="11.36" transform="translate(700.17, 253.65)" >Xi_1</text>
<text fill="#222222"  xml:space="preserve" font-size="11.36" transform="translate(700.17, 209.957)" >inverter</text>
<text fill="#222222"  xml:space="preserve" font-size="11.36" transform="translate(757.516, 309.357)" >A</text>
<text fill="#222222"  xml:space="preserve" font-size="11.36" transform="translate(827.343, 309.357)" >Y</text>
<text fill="#222222"  xml:space="preserve" font-size="11.36" transform="translate(809.401, 341.034)" >Xi_3</text>
<text fill="#222222"  xml:space="preserve" font-size="11.36" transform="translate(809.401, 297.342)" >inverter</text>
<text fill="#222222"  xml:space="preserve" font-size="11.36" transform="translate(648.286, 396.742)" >A</text>
<text fill="#222222"  xml:space="preserve" font-size="11.36" transform="translate(718.112, 396.742)" >Y</text>
<text fill="#222222"  xml:space="preserve" font-size="11.36" transform="translate(700.17, 428.418)" >Xi_2</text>
<text fill="#222222"  xml:space="preserve" font-size="11.36" transform="translate(700.17, 384.726)" >inverter</text>
<text fill="#222222"  xml:space="preserve" font-size="11.36" transform="translate(888.593, 309.357)" >A</text>
<text fill="#222222"  xml:space="preserve" font-size="11.36" transform="translate(958.419, 309.357)" >Y</text>
<text fill="#222222"  xml:space="preserve" font-size="11.36" transform="translate(940.477, 341.034)" >Xi_4</text>
<text fill="#222222"  xml:space="preserve" font-size="11.36" transform="translate(940.477, 297.342)" >inverter</text>
<text fill="#222222"  xml:space="preserve" font-size="11.36" transform="translate(238.672, 253.65)" >VPWR</text>
<text fill="#222222"  xml:space="preserve" font-size="11.36" transform="translate(238.672, 351.957)" >VGND</text>
<text fill="#222222"  xml:space="preserve" font-size="17.0399" transform="translate(216.826, 302.499)" >in</text>
<text fill="#222222"  xml:space="preserve" font-size="17.0399" transform="translate(282.364, 302.499)" >out</text>
<text fill="#222222"  xml:space="preserve" font-size="11.36" transform="translate(271.441, 231.804)" >cc_inv</text>
<text fill="#222222"  xml:space="preserve" font-size="11.36" transform="translate(271.441, 373.803)" >Xi_5</text>
<text fill="#222222"  xml:space="preserve" font-size="11.36" transform="translate(1335.82, 341.034)" >M1</text>
<text fill="#ff0000"  xml:space="preserve" font-size="8.51997" transform="translate(1371.94, 390.34)" >S</text>
<text fill="#ff0000"  xml:space="preserve" font-size="8.51997" transform="translate(1371.94, 342.337)" >D</text>
<text fill="#ff0000"  xml:space="preserve" font-size="8.51997" transform="translate(1329.44, 360.301)" >G</text>
<text fill="#222222"  xml:space="preserve" font-size="11.36" transform="translate(1380.13, 351.216)" >nfet_01v8</text>
<text fill="#666600"  xml:space="preserve" font-size="11.36" transform="translate(1381.5, 386.092)" >1 x 1 / 0.15</text>
<text fill="#222222"  xml:space="preserve" font-size="11.36" transform="translate(1335.82, 242.727)" >M2</text>
<text fill="#ff0000"  xml:space="preserve" font-size="8.51997" transform="translate(1371.94, 292.032)" >D</text>
<text fill="#ff0000"  xml:space="preserve" font-size="8.51997" transform="translate(1371.94, 244.029)" >S</text>
<text fill="#ff0000"  xml:space="preserve" font-size="8.51997" transform="translate(1329.44, 261.994)" >G</text>
<text fill="#222222"  xml:space="preserve" font-size="11.36" transform="translate(1380.13, 252.908)" >pfet_01v8</text>
<text fill="#666600"  xml:space="preserve" font-size="11.36" transform="translate(1381.5, 287.784)" >1 x 1 / 0.15</text>
<text fill="#222222"  xml:space="preserve" font-size="11.36" transform="translate(179.352, 438.565) rotate(270)" >R1</text>
<text fill="#222222"  xml:space="preserve" font-size="11.36" transform="translate(187.544, 390.796) rotate(270)" >1k</text>
<text fill="#666600"  xml:space="preserve" font-size="11.36" transform="translate(165.698, 425.104) rotate(270)" >1</text>
<text fill="#666600"  xml:space="preserve" font-size="11.36" transform="translate(212.121, 425.104) rotate(270)" >2</text>
<text fill="#222222"  xml:space="preserve" font-size="11.36" transform="translate(195.737, 451.565) rotate(270)" >m=1</text>
<text fill="#222222"  xml:space="preserve" font-size="11.36" transform="translate(229.133, 473.476)" >R2</text>
<text fill="#222222"  xml:space="preserve" font-size="11.36" transform="translate(276.902, 481.668)" >1k</text>
<text fill="#666600"  xml:space="preserve" font-size="11.36" transform="translate(242.595, 459.822)" >1</text>
<text fill="#666600"  xml:space="preserve" font-size="11.36" transform="translate(242.595, 506.245)" >2</text>
<text fill="#222222"  xml:space="preserve" font-size="11.36" transform="translate(216.133, 489.86)" >m=1</text>
<path class="l4" d="M943.208 265.181L1336.44 155.95"/>
<path class="l4" d="M948.669 363.488L1341.9 467.257"/>
<path class="l4" d="M276.902 188.72L708.363 30.3355"/>
<path class="l4" d="M282.364 390.796L670.132 565.565"/>
<circle class="l4" cx="1382.86" cy="310.876" r="162.773" style="fill:none;"/>
<circle class="l4" cx="929.554" cy="316.459" r="51.9279" style="fill:none;"/>
<circle class="l4" cx="807.402" cy="307.331" r="294.139" style="fill:none;"/>
<circle class="l4" cx="259.744" cy="291.956" r="103.425" style="fill:none;"/>
<path class="l4" d="M664.67 205.104L664.67 248.796"/>
<path class="l4" d="M664.67 205.104L708.363 226.95"/>
<path class="l4" d="M664.67 248.796L708.363 226.95"/>
<path class="l4" d="M719.286 226.95L730.209 226.95"/>
<path class="l4" d="M642.824 226.95L664.67 226.95"/>
<path class="l4" d="M686.516 194.181L686.516 216.027"/>
<path class="l4" d="M686.516 237.873L686.516 259.719"/>
<circle class="l4" cx="713.824" cy="226.95" r="5.46152" style="fill:none;"/>
<path class="l4" d="M773.901 292.489L773.901 336.181"/>
<path class="l4" d="M773.901 292.489L817.593 314.335"/>
<path class="l4" d="M773.901 336.181L817.593 314.335"/>
<path class="l4" d="M828.516 314.335L839.439 314.335"/>
<path class="l4" d="M752.055 314.335L773.901 314.335"/>
<path class="l4" d="M795.747 281.565L795.747 303.412"/>
<path class="l4" d="M795.747 325.258L795.747 347.104"/>
<circle class="l4" cx="823.054" cy="314.335" r="5.46152" style="fill:none;"/>
<path class="l4" d="M664.67 379.873L664.67 423.565"/>
<path class="l4" d="M664.67 379.873L708.363 401.719"/>
<path class="l4" d="M664.67 423.565L708.363 401.719"/>
<path class="l4" d="M719.286 401.719L730.209 401.719"/>
<path class="l4" d="M642.824 401.719L664.67 401.719"/>
<path class="l4" d="M686.516 368.95L686.516 390.796"/>
<path class="l4" d="M686.516 412.642L686.516 434.488"/>
<circle class="l4" cx="713.824" cy="401.719" r="5.46152" style="fill:none;"/>
<path class="l4" d="M904.977 292.489L904.977 336.181"/>
<path class="l4" d="M904.977 292.489L948.669 314.335"/>
<path class="l4" d="M904.977 336.181L948.669 314.335"/>
<path class="l4" d="M959.593 314.335L970.516 314.335"/>
<path class="l4" d="M883.131 314.335L904.977 314.335"/>
<path class="l4" d="M926.823 281.565L926.823 303.412"/>
<path class="l4" d="M926.823 325.258L926.823 347.104"/>
<circle class="l4" cx="954.131" cy="314.335" r="5.46152" style="fill:none;"/>
<path class="l4" d="M205.903 232.412L205.903 363.488"/>
<path class="l4" d="M315.133 254.258L315.133 341.642"/>
<path class="l4" d="M205.903 232.412L315.133 254.258"/>
<path class="l4" d="M205.903 363.488L315.133 341.642"/>
<path class="l4" d="M315.133 265.181L336.979 265.181"/>
<path class="l4" d="M315.133 330.719L336.979 330.719"/>
<path class="l4" d="M184.056 265.181L205.903 265.181"/>
<path class="l4" d="M184.056 330.719L205.903 330.719"/>
<path class="l4" d="M227.749 254.258L227.749 276.104"/>
<path class="l4" d="M216.826 265.181L238.672 265.181"/>
<path class="l4" d="M216.826 330.719L238.672 330.719"/>
<path class="l4" d="M293.287 254.258L293.287 276.104"/>
<path class="l4" d="M282.364 265.181L304.21 265.181"/>
<path class="l4" d="M282.364 330.719L304.21 330.719"/>
<path class="l4" d="M260.518 210.566L260.518 243.335"/>
<path class="l4" d="M260.518 352.565L260.518 385.334"/>
<path class="l4" d="M1355.55 338.911L1355.55 388.065"/>
<path class="l4" d="M1325.51 363.488L1350.09 363.488"/>
<path class="l4" d="M1369.21 330.719L1369.21 344.373"/>
<path class="l4" d="M1369.21 382.604L1369.21 396.257"/>
<path class="l4" d="M1350.09 347.104L1350.09 379.873"/>
<path class="l4" d="M1355.55 344.373L1369.21 344.373"/>
<path class="l4" d="M1355.55 382.604L1363.75 382.604"/>
<path class="l4" d="M1363.75 379.873L1369.21 382.604L1363.75 385.334L1363.75 379.873"/>
<path class="l4" d="M1355.55 240.604L1355.55 289.758"/>
<path class="l4" d="M1369.21 232.412L1369.21 246.066"/>
<path class="l4" d="M1369.21 284.296L1369.21 297.95"/>
<path class="l4" d="M1350.09 248.796L1350.09 281.565"/>
<path class="l4" d="M1355.55 284.296L1369.21 284.296"/>
<path class="l4" d="M1361.01 246.066L1369.21 246.066"/>
<path class="l4" d="M1325.51 265.181L1339.17 265.181"/>
<path class="l4" d="M1361.01 243.335L1355.55 246.066L1361.01 248.796L1361.01 243.335"/>
<circle class="l4" cx="1344.63" cy="265.181" r="5.46152" style="fill:none;"/>
<path class="l4" d="M205.903 407.18L216.826 407.18"/>
<path class="l4" d="M203.172 398.988L205.903 407.18"/>
<path class="l4" d="M197.71 415.373L203.172 398.988"/>
<path class="l4" d="M192.249 398.988L197.71 415.373"/>
<path class="l4" d="M186.787 415.373L192.249 398.988"/>
<path class="l4" d="M181.326 398.988L186.787 415.373"/>
<path class="l4" d="M175.864 415.373L181.326 398.988"/>
<path class="l4" d="M170.403 398.988L175.864 415.373"/>
<path class="l4" d="M164.941 415.373L170.403 398.988"/>
<path class="l4" d="M162.21 407.18L164.941 415.373"/>
<path class="l4" d="M151.287 407.18L162.21 407.18"/>
<path class="l4" d="M159.48 398.988L159.48 404.45"/>
<path class="l4" d="M156.749 401.719L162.21 401.719"/>
<path class="l4" d="M260.518 500.026L260.518 510.949"/>
<path class="l4" d="M260.518 500.026L268.71 497.296"/>
<path class="l4" d="M252.325 491.834L268.71 497.296"/>
<path class="l4" d="M252.325 491.834L268.71 486.373"/>
<path class="l4" d="M252.325 480.911L268.71 486.373"/>
<path class="l4" d="M252.325 480.911L268.71 475.449"/>
<path class="l4" d="M252.325 469.988L268.71 475.449"/>
<path class="l4" d="M252.325 469.988L268.71 464.526"/>
<path class="l4" d="M252.325 459.065L268.71 464.526"/>
<path class="l4" d="M252.325 459.065L260.518 456.334"/>
<path class="l4" d="M260.518 445.411L260.518 456.334"/>
<path class="l4" d="M263.249 453.603L268.71 453.603"/>
<path class="l4" d="M265.979 450.873L265.979 456.334"/>
<path class="l4" d="M260.518 543.719L260.518 557.372"/>
<path class="l4" d="M255.056 557.372L265.979 557.372"/>
<path class="l4" d="M260.518 562.834L265.979 557.372"/>
<path class="l4" d="M255.056 557.372L260.518 562.834"/>
<path class="l5" d="M685.151 160.047L687.882 160.047L687.882 162.777L685.151 162.777L685.151 160.047z"/>
<path class="l5" d="M925.458 160.047L928.189 160.047L928.189 162.777L925.458 162.777L925.458 160.047z"/>
<path class="l5" d="M685.151 345.738L687.882 345.738L687.882 348.469L685.151 348.469L685.151 345.738z"/>
<path class="l5" d="M685.151 454.969L687.882 454.969L687.882 457.7L685.151 457.7L685.151 454.969z"/>
<path class="l5" d="M794.382 454.969L797.112 454.969L797.112 457.7L794.382 457.7L794.382 454.969z"/>
<path class="l5" d="M925.458 454.969L928.189 454.969L928.189 457.7L925.458 457.7L925.458 454.969z"/>
<path class="l5" d="M685.151 280.2L687.882 280.2L687.882 282.931L685.151 282.931L685.151 280.2z"/>
<path class="l5" d="M608.69 225.585L611.421 225.585L611.421 228.316L608.69 228.316L608.69 225.585z"/>
<path class="l5" d="M608.69 400.354L611.421 400.354L611.421 403.084L608.69 403.084L608.69 400.354z"/>
<path class="l5" d="M1001.92 225.585L1004.65 225.585L1004.65 228.316L1001.92 228.316L1001.92 225.585z"/>
<path class="l5" d="M1001.92 400.354L1004.65 400.354L1004.65 403.084L1001.92 403.084L1001.92 400.354z"/>
<path class="l5" d="M784.824 521.872L790.968 516.582L796.6 516.582L802.744 521.872L796.6 527.163L790.968 527.163L784.824 521.872"/>
<path class="l5" d="M784.813 521.862L784.835 521.862L784.835 521.883L784.813 521.883L784.813 521.862z"/>
<path class="l5" d="M784.824 106.797L790.968 101.506L796.6 101.506L802.744 106.797L796.6 112.088L790.968 112.088L784.824 106.797"/>
<path class="l5" d="M784.813 106.786L784.835 106.786L784.835 106.807L784.813 106.807L784.813 106.786z"/>
<path class="l5" d="M761.612 105.431L764.343 105.431L764.343 108.162L761.612 108.162L761.612 105.431z"/>
<path class="l5" d="M761.612 520.507L764.343 520.507L764.343 523.238L761.612 523.238L761.612 520.507z"/>
<path class="l5" d="M794.382 160.047L797.112 160.047L797.112 162.777L794.382 162.777L794.382 160.047z"/>
<path class="l5" d="M640.094 224.219L645.555 224.219L645.555 229.681L640.094 229.681L640.094 224.219z"/>
<path class="l5" d="M683.786 191.45L689.247 191.45L689.247 196.912L683.786 196.912L683.786 191.45z"/>
<path class="l5" d="M683.786 256.989L689.247 256.989L689.247 262.45L683.786 262.45L683.786 256.989z"/>
<path class="l5" d="M727.478 224.219L732.939 224.219L732.939 229.681L727.478 229.681L727.478 224.219z"/>
<path class="l5" d="M749.324 311.604L754.785 311.604L754.785 317.065L749.324 317.065L749.324 311.604z"/>
<path class="l5" d="M793.016 278.835L798.478 278.835L798.478 284.296L793.016 284.296L793.016 278.835z"/>
<path class="l5" d="M793.016 344.373L798.478 344.373L798.478 349.834L793.016 349.834L793.016 344.373z"/>
<path class="l5" d="M836.708 311.604L842.17 311.604L842.17 317.065L836.708 317.065L836.708 311.604z"/>
<path class="l5" d="M640.094 398.988L645.555 398.988L645.555 404.45L640.094 404.45L640.094 398.988z"/>
<path class="l5" d="M683.786 366.219L689.247 366.219L689.247 371.681L683.786 371.681L683.786 366.219z"/>
<path class="l5" d="M683.786 431.757L689.247 431.757L689.247 437.219L683.786 437.219L683.786 431.757z"/>
<path class="l5" d="M727.478 398.988L732.939 398.988L732.939 404.45L727.478 404.45L727.478 398.988z"/>
<path class="l5" d="M880.4 311.604L885.862 311.604L885.862 317.065L880.4 317.065L880.4 311.604z"/>
<path class="l5" d="M924.093 278.835L929.554 278.835L929.554 284.296L924.093 284.296L924.093 278.835z"/>
<path class="l5" d="M924.093 344.373L929.554 344.373L929.554 349.834L924.093 349.834L924.093 344.373z"/>
<path class="l5" d="M967.785 311.604L973.246 311.604L973.246 317.065L967.785 317.065L967.785 311.604z"/>
<path class="l5" d="M1008.75 226.95L1014.89 221.659L1020.52 221.659L1026.67 226.95L1020.52 232.241L1014.89 232.241L1008.75 226.95"/>
<path class="l5" d="M1008.74 226.94L1008.76 226.94L1008.76 226.961L1008.74 226.961L1008.74 226.94z"/>
<path class="l5" d="M1008.75 401.719L1014.89 396.428L1020.52 396.428L1026.67 401.719L1020.52 407.01L1014.89 407.01L1008.75 401.719"/>
<path class="l5" d="M1008.74 401.708L1008.76 401.708L1008.76 401.73L1008.74 401.73L1008.74 401.708z"/>
<path class="l5" d="M582.748 226.95L576.603 232.241L570.971 232.241L564.827 226.95L570.971 221.659L576.603 221.659L582.748 226.95"/>
<path class="l5" d="M582.737 226.94L582.758 226.94L582.758 226.961L582.737 226.961L582.737 226.94z"/>
<path class="l5" d="M582.748 401.719L576.603 407.01L570.971 407.01L564.827 401.719L570.971 396.428L576.603 396.428L582.748 401.719"/>
<path class="l5" d="M582.737 401.708L582.758 401.708L582.758 401.73L582.737 401.73L582.737 401.708z"/>
<path class="l5" d="M181.326 262.45L186.787 262.45L186.787 267.912L181.326 267.912L181.326 262.45z"/>
<path class="l5" d="M181.326 327.988L186.787 327.988L186.787 333.45L181.326 333.45L181.326 327.988z"/>
<path class="l5" d="M257.787 207.835L263.249 207.835L263.249 213.296L257.787 213.296L257.787 207.835z"/>
<path class="l5" d="M257.787 382.604L263.249 382.604L263.249 388.065L257.787 388.065L257.787 382.604z"/>
<path class="l5" d="M334.248 327.988L339.71 327.988L339.71 333.45L334.248 333.45L334.248 327.988z"/>
<path class="l5" d="M334.248 262.45L339.71 262.45L339.71 267.912L334.248 267.912L334.248 262.45z"/>
<path class="l5" d="M1366.48 327.988L1371.94 327.988L1371.94 333.45L1366.48 333.45L1366.48 327.988z"/>
<path class="l5" d="M1322.78 360.758L1328.25 360.758L1328.25 366.219L1322.78 366.219L1322.78 360.758z"/>
<path class="l5" d="M1366.48 393.527L1371.94 393.527L1371.94 398.988L1366.48 398.988L1366.48 393.527z"/>
<path class="l5" d="M1366.48 295.219L1371.94 295.219L1371.94 300.681L1366.48 300.681L1366.48 295.219z"/>
<path class="l5" d="M1322.78 262.45L1328.25 262.45L1328.25 267.912L1322.78 267.912L1322.78 262.45z"/>
<path class="l5" d="M1366.48 229.681L1371.94 229.681L1371.94 235.143L1366.48 235.143L1366.48 229.681z"/>
<path class="l5" d="M1287.28 314.335L1280.46 308.873L1271.58 308.873L1271.58 319.796L1280.46 319.796L1287.28 314.335"/>
<path class="l5" d="M1287.27 314.324L1287.29 314.324L1287.29 314.345L1287.27 314.345L1287.27 314.324z"/>
<path class="l5" d="M1369.21 188.72L1375.35 183.429L1380.98 183.429L1387.13 188.72L1380.98 194.01L1375.35 194.01L1369.21 188.72"/>
<path class="l5" d="M1369.2 188.709L1369.22 188.709L1369.22 188.73L1369.2 188.73L1369.2 188.709z"/>
<path class="l5" d="M1369.21 439.95L1375.35 434.659L1380.98 434.659L1387.13 439.95L1380.98 445.24L1375.35 445.24L1369.21 439.95"/>
<path class="l5" d="M1369.2 439.939L1369.22 439.939L1369.22 439.96L1369.2 439.96L1369.2 439.939z"/>
<path class="l5" d="M1423.82 308.873L1423.82 319.796L1432.7 319.796L1439.52 314.335L1432.7 308.873L1423.82 308.873"/>
<path class="l5" d="M1423.81 314.324L1423.83 314.324L1423.83 314.345L1423.81 314.345L1423.81 314.324z"/>
<path class="l5" d="M148.557 404.45L154.018 404.45L154.018 409.911L148.557 409.911L148.557 404.45z"/>
<path class="l5" d="M214.095 404.45L219.556 404.45L219.556 409.911L214.095 409.911L214.095 404.45z"/>
<path class="l5" d="M257.787 442.68L263.249 442.68L263.249 448.142L257.787 448.142L257.787 442.68z"/>
<path class="l5" d="M257.787 508.219L263.249 508.219L263.249 513.68L257.787 513.68L257.787 508.219z"/>
<path class="l5" d="M102.134 407.18L95.3067 401.719L86.4318 401.719L86.4318 412.642L95.3067 412.642L102.134 407.18"/>
<path class="l5" d="M102.123 407.17L102.144 407.17L102.144 407.191L102.123 407.191L102.123 407.17z"/>
<path class="l5" d="M257.787 540.988L263.249 540.988L263.249 546.449L257.787 546.449L257.787 540.988z"/>
<path class="l1" d="M577.286 226.95L642.824 226.95"/>
<path class="l1" d="M577.286 401.719L642.824 401.719"/>
<path class="l1" d="M730.209 226.95L1014.21 226.95"/>
<path class="l1" d="M730.209 401.719L1014.21 401.719"/>
<path class="l1" d="M752.055 226.95L752.055 314.335"/>
<path class="l1" d="M839.439 314.335L839.439 401.719"/>
<path class="l1" d="M883.131 314.335L883.131 401.719"/>
<path class="l1" d="M970.516 226.95L970.516 314.335"/>
<path class="l1" d="M795.747 139.566L795.747 281.565"/>
<path class="l1" d="M926.823 139.566L926.823 281.565"/>
<path class="l1" d="M795.747 347.104L795.747 478.18"/>
<path class="l1" d="M926.823 347.104L926.823 478.18"/>
<path class="l1" d="M686.516 139.566L686.516 194.181"/>
<path class="l1" d="M686.516 325.258L686.516 368.95"/>
<path class="l1" d="M686.516 434.488L686.516 478.18"/>
<path class="l1" d="M686.516 259.719L686.516 303.412"/>
<path class="l1" d="M719.286 521.872L784.824 521.872"/>
<path class="l1" d="M719.286 106.797L784.824 106.797"/>
<path class="l1" d="M1369.21 297.95L1369.21 330.719"/>
<path class="l1" d="M1309.13 265.181L1309.13 363.488"/>
<path class="l1" d="M1369.21 396.257L1369.21 418.104"/>
<path class="l1" d="M1369.21 188.72L1369.21 232.412"/>
<path class="l1" d="M1369.21 418.104L1369.21 439.95"/>
<path class="l1" d="M1369.21 314.335L1423.82 314.335"/>
<path class="l1" d="M1309.13 265.181L1325.51 265.181"/>
<path class="l1" d="M1309.13 363.488L1325.51 363.488"/>
<path class="l1" d="M1287.28 314.335L1309.13 314.335"/>
<path class="l1" d="M260.518 385.334L260.518 445.411"/>
<path class="l1" d="M216.826 407.18L260.518 407.18"/>
<path class="l1" d="M260.518 510.949L260.518 543.719"/>
<path class="l1" d="M102.134 407.18L151.287 407.18"/>
<circle class="l1" cx="260.518" cy="407.18" r="4.15076"/>
<circle class="l1" cx="752.055" cy="226.95" r="4.15076"/>
<circle class="l1" cx="970.516" cy="226.95" r="4.15076"/>
<circle class="l1" cx="883.131" cy="401.719" r="4.15076"/>
<circle class="l1" cx="839.439" cy="401.719" r="4.15076"/>
<circle class="l1" cx="1309.13" cy="314.335" r="4.15076"/>
<circle class="l1" cx="1369.21" cy="314.335" r="4.15076"/>
</svg>
