<svg xmlns="http://www.w3.org/2000/svg" width="1600" height="646" version="1.1">
<style type="text/css">
.l0{
 fill: #ffffff;
  stroke: #ffffff;
  stroke-linecap:round;
  stroke-linejoin:round;
  stroke-width: 0.707813;
}
.l1{
 fill: #0044ee;
  stroke: #0044ee;
  stroke-linecap:round;
  stroke-linejoin:round;
  stroke-width: 0.707813;
}
.l2{
  fill: none;
  stroke: #aaaaaa;
  stroke-linecap:round;
  stroke-linejoin:round;
  stroke-width: 0.707813;
}
.l3{
 fill: #222222; fill-opacity: 0.5;
  stroke: #222222;
  stroke-linecap:round;
  stroke-linejoin:round;
  stroke-width: 0.707813;
}
.l4{
 fill: #229900;
  stroke: #229900;
  stroke-linecap:round;
  stroke-linejoin:round;
  stroke-width: 0.707813;
}
.l5{
 fill: #bb2200;
  stroke: #bb2200;
  stroke-linecap:round;
  stroke-linejoin:round;
  stroke-width: 0.707813;
}
.l6{
 fill: #00ccee; fill-opacity: 0.5;
  stroke: #00ccee;
  stroke-linecap:round;
  stroke-linejoin:round;
  stroke-width: 0.707813;
}
.l7{
 fill: #ff0000; fill-opacity: 0.5;
  stroke: #ff0000;
  stroke-linecap:round;
  stroke-linejoin:round;
  stroke-width: 0.707813;
}
.l8{
 fill: #888800; fill-opacity: 0.5;
  stroke: #888800;
  stroke-linecap:round;
  stroke-linejoin:round;
  stroke-width: 0.707813;
}
.l9{
 fill: #00aaaa; fill-opacity: 0.5;
  stroke: #00aaaa;
  stroke-linecap:round;
  stroke-linejoin:round;
  stroke-width: 0.707813;
}
.l10{
 fill: #880088;
  stroke: #880088;
  stroke-linecap:round;
  stroke-linejoin:round;
  stroke-width: 0.707813;
}
.l11{
 fill: #00ff00; fill-opacity: 0.5;
  stroke: #00ff00;
  stroke-linecap:round;
  stroke-linejoin:round;
  stroke-width: 0.707813;
}
.l12{
 fill: #0000cc; fill-opacity: 0.5;
  stroke: #0000cc;
  stroke-linecap:round;
  stroke-linejoin:round;
  stroke-width: 0.707813;
}
.l13{
 fill: #666600; fill-opacity: 0.5;
  stroke: #666600;
  stroke-linecap:round;
  stroke-linejoin:round;
  stroke-width: 0.707813;
}
.l14{
  fill: none;
  stroke: #557755;
  stroke-linecap:round;
  stroke-linejoin:round;
  stroke-width: 0.707813;
}
.l15{
 fill: #aa2222; fill-opacity: 0.5;
  stroke: #aa2222;
  stroke-linecap:round;
  stroke-linejoin:round;
  stroke-width: 0.707813;
}
.l16{
 fill: #7ccc40; fill-opacity: 0.5;
  stroke: #7ccc40;
  stroke-linecap:round;
  stroke-linejoin:round;
  stroke-width: 0.707813;
}
.l17{
  fill: none;
  stroke: #00ffcc;
  stroke-linecap:round;
  stroke-linejoin:round;
  stroke-width: 0.707813;
}
.l18{
 fill: #ce0097; fill-opacity: 0.5;
  stroke: #ce0097;
  stroke-linecap:round;
  stroke-linejoin:round;
  stroke-width: 0.707813;
}
.l19{
  fill: none;
  stroke: #d2d46b;
  stroke-linecap:round;
  stroke-linejoin:round;
  stroke-width: 0.707813;
}
.l20{
  fill: none;
  stroke: #ef6158;
  stroke-linecap:round;
  stroke-linejoin:round;
  stroke-width: 0.707813;
}
.l21{
  fill: none;
  stroke: #fdb200;
  stroke-linecap:round;
  stroke-linejoin:round;
  stroke-width: 0.707813;
}
text {font-family: Sans-Serif;}
</style>
<rect class="l0" x="0" y="0" width="1600" height="646"/>
<text fill="#0044ee"  xml:space="preserve" font-size="22.4927" transform="translate(586.589, 138.468)" >VPWR</text>
<text fill="#0044ee"  xml:space="preserve" font-size="22.4927" transform="translate(874.957, 138.468)" >VPWR</text>
<text fill="#0044ee"  xml:space="preserve" font-size="22.4927" transform="translate(586.589, 361.298)" >VPWR</text>
<text fill="#0044ee"  xml:space="preserve" font-size="22.4927" transform="translate(587.589, 492.374)" >VGND</text>
<text fill="#0044ee"  xml:space="preserve" font-size="22.4927" transform="translate(718.666, 492.374)" >VGND</text>
<text fill="#0044ee"  xml:space="preserve" font-size="22.4927" transform="translate(875.957, 492.374)" >VGND</text>
<text fill="#0044ee"  xml:space="preserve" font-size="22.4927" transform="translate(587.589, 282.652)" >VGND</text>
<text fill="#0044ee"  xml:space="preserve" font-size="18.4031" transform="translate(539.389, 201.304)" >inp</text>
<text fill="#0044ee"  xml:space="preserve" font-size="18.4031" transform="translate(539.389, 411.026)" >inn</text>
<text fill="#0044ee"  xml:space="preserve" font-size="18.4031" transform="translate(998.265, 201.304)" >outp</text>
<text fill="#0044ee"  xml:space="preserve" font-size="18.4031" transform="translate(998.265, 411.026)" >outn</text>
<text fill="#0044ee"  xml:space="preserve" font-size="22.4927" transform="translate(807.399, 570.201)" >VGND</text>
<text fill="#0044ee"  xml:space="preserve" font-size="22.4927" transform="translate(807.399, 72.1103)" >VPWR</text>
<text fill="#0044ee"  xml:space="preserve" font-size="18.4031" transform="translate(696.896, 57.1193)" >VPWR</text>
<text fill="#0044ee"  xml:space="preserve" font-size="18.4031" transform="translate(696.896, 555.21)" >VGND</text>
<text fill="#0044ee"  xml:space="preserve" font-size="22.4927" transform="translate(717.666, 138.468)" >VPWR</text>
<text fill="#0044ee"  xml:space="preserve" font-size="22.4927" transform="translate(1076.11, 216.295)" >outp</text>
<text fill="#0044ee"  xml:space="preserve" font-size="22.4927" transform="translate(1076.11, 426.017)" >outn</text>
<text fill="#0044ee"  xml:space="preserve" font-size="22.4927" transform="translate(478.886, 213.434)" >inp</text>
<text fill="#0044ee"  xml:space="preserve" font-size="22.4927" transform="translate(478.886, 423.156)" >inn</text>
<text fill="#0044ee"  xml:space="preserve" font-size="22.4927" transform="translate(1206.13, 334.263)" >A</text>
<text fill="#0044ee"  xml:space="preserve" font-size="22.4927" transform="translate(1371.03, 183.525)" >VPWR</text>
<text fill="#0044ee"  xml:space="preserve" font-size="22.4927" transform="translate(1371.03, 485.001)" >VGND</text>
<text fill="#0044ee"  xml:space="preserve" font-size="22.4927" transform="translate(1436.77, 334.263)" >Y</text>
<text fill="#0044ee"  xml:space="preserve" font-size="22.4927" transform="translate(78.8753, 426.017)" >A</text>
<text fill="#0044ee"  xml:space="preserve" font-size="13.632" transform="translate(319.344, 599.84)" >GND</text>
<text fill="#222222"  xml:space="preserve" font-size="13.632" transform="translate(617.543, 201.367)" >A</text>
<text fill="#222222"  xml:space="preserve" font-size="13.632" transform="translate(700.935, 201.367)" >Y</text>
<text fill="#222222"  xml:space="preserve" font-size="13.632" transform="translate(679.804, 239.38)" >Xi_1</text>
<text fill="#222222"  xml:space="preserve" font-size="13.632" transform="translate(679.804, 186.949)" >inverter</text>
<text fill="#222222"  xml:space="preserve" font-size="13.632" transform="translate(748.619, 306.229)" >A</text>
<text fill="#222222"  xml:space="preserve" font-size="13.632" transform="translate(832.012, 306.229)" >Y</text>
<text fill="#222222"  xml:space="preserve" font-size="13.632" transform="translate(810.881, 344.241)" >Xi_3</text>
<text fill="#222222"  xml:space="preserve" font-size="13.632" transform="translate(810.881, 291.81)" >inverter</text>
<text fill="#222222"  xml:space="preserve" font-size="13.632" transform="translate(617.543, 411.09)" >A</text>
<text fill="#222222"  xml:space="preserve" font-size="13.632" transform="translate(700.935, 411.09)" >Y</text>
<text fill="#222222"  xml:space="preserve" font-size="13.632" transform="translate(679.804, 449.102)" >Xi_2</text>
<text fill="#222222"  xml:space="preserve" font-size="13.632" transform="translate(679.804, 396.671)" >inverter</text>
<text fill="#222222"  xml:space="preserve" font-size="13.632" transform="translate(905.911, 306.229)" >A</text>
<text fill="#222222"  xml:space="preserve" font-size="13.632" transform="translate(989.303, 306.229)" >Y</text>
<text fill="#222222"  xml:space="preserve" font-size="13.632" transform="translate(968.173, 344.241)" >Xi_4</text>
<text fill="#222222"  xml:space="preserve" font-size="13.632" transform="translate(968.173, 291.81)" >inverter</text>
<text fill="#222222"  xml:space="preserve" font-size="13.632" transform="translate(283.298, 232.826)" >VPWR</text>
<text fill="#222222"  xml:space="preserve" font-size="13.632" transform="translate(283.298, 350.795)" >VGND</text>
<text fill="#222222"  xml:space="preserve" font-size="20.4479" transform="translate(257.083, 291.445)" >in</text>
<text fill="#222222"  xml:space="preserve" font-size="20.4479" transform="translate(335.728, 291.445)" >out</text>
<text fill="#222222"  xml:space="preserve" font-size="13.632" transform="translate(322.621, 206.61)" >cc_inv</text>
<text fill="#222222"  xml:space="preserve" font-size="13.632" transform="translate(322.621, 377.01)" >Xi_5</text>
<text fill="#222222"  xml:space="preserve" font-size="13.632" transform="translate(1304.36, 357.348)" >M1</text>
<text fill="#ff0000"  xml:space="preserve" font-size="10.224" transform="translate(1348.29, 416.515)" >S</text>
<text fill="#ff0000"  xml:space="preserve" font-size="10.224" transform="translate(1348.29, 358.912)" >D</text>
<text fill="#ff0000"  xml:space="preserve" font-size="10.224" transform="translate(1297.69, 380.469)" >G</text>
<text fill="#222222"  xml:space="preserve" font-size="13.632" transform="translate(1358.13, 369.566)" >nfet_01v8</text>
<text fill="#666600"  xml:space="preserve" font-size="13.632" transform="translate(1359.76, 411.418)" >1 x 1 / 0.15</text>
<text fill="#222222"  xml:space="preserve" font-size="13.632" transform="translate(1304.36, 239.38)" >M2</text>
<text fill="#ff0000"  xml:space="preserve" font-size="10.224" transform="translate(1348.29, 298.546)" >D</text>
<text fill="#ff0000"  xml:space="preserve" font-size="10.224" transform="translate(1348.29, 240.943)" >S</text>
<text fill="#ff0000"  xml:space="preserve" font-size="10.224" transform="translate(1297.69, 262.5)" >G</text>
<text fill="#222222"  xml:space="preserve" font-size="13.632" transform="translate(1358.13, 251.598)" >pfet_01v8</text>
<text fill="#666600"  xml:space="preserve" font-size="13.632" transform="translate(1359.76, 293.449)" >1 x 1 / 0.15</text>
<text fill="#222222"  xml:space="preserve" font-size="13.632" transform="translate(212.114, 454.724) rotate(270)" >R1</text>
<text fill="#222222"  xml:space="preserve" font-size="13.632" transform="translate(221.945, 397.401) rotate(270)" >1k</text>
<text fill="#666600"  xml:space="preserve" font-size="13.632" transform="translate(195.73, 439.17) rotate(270)" >1</text>
<text fill="#666600"  xml:space="preserve" font-size="13.632" transform="translate(251.437, 439.17) rotate(270)" >2</text>
<text fill="#222222"  xml:space="preserve" font-size="13.632" transform="translate(231.776, 469.724) rotate(270)" >m=1</text>
<text fill="#222222"  xml:space="preserve" font-size="13.632" transform="translate(271.852, 496.617)" >R2</text>
<text fill="#222222"  xml:space="preserve" font-size="13.632" transform="translate(329.175, 506.448)" >1k</text>
<text fill="#666600"  xml:space="preserve" font-size="13.632" transform="translate(287.405, 480.233)" >1</text>
<text fill="#666600"  xml:space="preserve" font-size="13.632" transform="translate(287.405, 535.94)" >2</text>
<text fill="#222222"  xml:space="preserve" font-size="13.632" transform="translate(256.852, 516.279)" >m=1</text>
<path class="l4" d="M997.665 266.325L1286.03 141.802"/>
<path class="l4" d="M991.111 364.632L1272.93 495.709"/>
<circle class="l4" cx="1361.4" cy="321.158" r="195.327" style="fill:none;"/>
<circle class="l4" cx="955.065" cy="314.75" r="62.3135" style="fill:none;"/>
<path class="l4" d="M637.204 181.125L637.204 233.556"/>
<path class="l4" d="M637.204 181.125L689.635 207.34"/>
<path class="l4" d="M637.204 233.556L689.635 207.34"/>
<path class="l4" d="M702.743 207.34L715.85 207.34"/>
<path class="l4" d="M610.989 207.34L637.204 207.34"/>
<path class="l4" d="M663.42 168.017L663.42 194.233"/>
<path class="l4" d="M663.42 220.448L663.42 246.663"/>
<circle class="l4" cx="696.189" cy="207.34" r="6.55383" style="fill:none;"/>
<path class="l4" d="M768.281 285.986L768.281 338.417"/>
<path class="l4" d="M768.281 285.986L820.712 312.202"/>
<path class="l4" d="M768.281 338.417L820.712 312.202"/>
<path class="l4" d="M833.819 312.202L846.927 312.202"/>
<path class="l4" d="M742.066 312.202L768.281 312.202"/>
<path class="l4" d="M794.496 272.879L794.496 299.094"/>
<path class="l4" d="M794.496 325.309L794.496 351.524"/>
<circle class="l4" cx="827.265" cy="312.202" r="6.55383" style="fill:none;"/>
<path class="l4" d="M637.204 390.847L637.204 443.278"/>
<path class="l4" d="M637.204 390.847L689.635 417.063"/>
<path class="l4" d="M637.204 443.278L689.635 417.063"/>
<path class="l4" d="M702.743 417.063L715.85 417.063"/>
<path class="l4" d="M610.989 417.063L637.204 417.063"/>
<path class="l4" d="M663.42 377.74L663.42 403.955"/>
<path class="l4" d="M663.42 430.17L663.42 456.386"/>
<circle class="l4" cx="696.189" cy="417.063" r="6.55383" style="fill:none;"/>
<path class="l4" d="M925.573 285.986L925.573 338.417"/>
<path class="l4" d="M925.573 285.986L978.003 312.202"/>
<path class="l4" d="M925.573 338.417L978.003 312.202"/>
<path class="l4" d="M991.111 312.202L1004.22 312.202"/>
<path class="l4" d="M899.357 312.202L925.573 312.202"/>
<path class="l4" d="M951.788 272.879L951.788 299.094"/>
<path class="l4" d="M951.788 325.309L951.788 351.524"/>
<circle class="l4" cx="984.557" cy="312.202" r="6.55383" style="fill:none;"/>
<path class="l4" d="M243.975 207.34L243.975 364.632"/>
<path class="l4" d="M375.051 233.556L375.051 338.417"/>
<path class="l4" d="M243.975 207.34L375.051 233.556"/>
<path class="l4" d="M243.975 364.632L375.051 338.417"/>
<path class="l4" d="M375.051 246.663L401.267 246.663"/>
<path class="l4" d="M375.051 325.309L401.267 325.309"/>
<path class="l4" d="M217.76 246.663L243.975 246.663"/>
<path class="l4" d="M217.76 325.309L243.975 325.309"/>
<path class="l4" d="M270.19 233.556L270.19 259.771"/>
<path class="l4" d="M257.083 246.663L283.298 246.663"/>
<path class="l4" d="M257.083 325.309L283.298 325.309"/>
<path class="l4" d="M348.836 233.556L348.836 259.771"/>
<path class="l4" d="M335.728 246.663L361.944 246.663"/>
<path class="l4" d="M335.728 325.309L361.944 325.309"/>
<path class="l4" d="M309.513 181.125L309.513 220.448"/>
<path class="l4" d="M309.513 351.524L309.513 390.847"/>
<path class="l4" d="M1328.63 354.801L1328.63 413.786"/>
<path class="l4" d="M1292.59 384.294L1322.08 384.294"/>
<path class="l4" d="M1345.02 344.971L1345.02 361.355"/>
<path class="l4" d="M1345.02 407.232L1345.02 423.617"/>
<path class="l4" d="M1322.08 364.632L1322.08 403.955"/>
<path class="l4" d="M1328.63 361.355L1345.02 361.355"/>
<path class="l4" d="M1328.63 407.232L1338.46 407.232"/>
<path class="l4" d="M1338.46 403.955L1345.02 407.232L1338.46 410.509L1338.46 403.955"/>
<path class="l4" d="M1328.63 236.833L1328.63 295.817"/>
<path class="l4" d="M1345.02 227.002L1345.02 243.386"/>
<path class="l4" d="M1345.02 289.263L1345.02 305.648"/>
<path class="l4" d="M1322.08 246.663L1322.08 285.986"/>
<path class="l4" d="M1328.63 289.263L1345.02 289.263"/>
<path class="l4" d="M1335.19 243.386L1345.02 243.386"/>
<path class="l4" d="M1292.59 266.325L1308.97 266.325"/>
<path class="l4" d="M1335.19 240.109L1328.63 243.386L1335.19 246.663L1335.19 240.109"/>
<circle class="l4" cx="1315.53" cy="266.325" r="6.55383" style="fill:none;"/>
<path class="l4" d="M243.975 417.063L257.083 417.063"/>
<path class="l4" d="M240.698 407.232L243.975 417.063"/>
<path class="l4" d="M234.144 426.893L240.698 407.232"/>
<path class="l4" d="M227.59 407.232L234.144 426.893"/>
<path class="l4" d="M221.036 426.893L227.59 407.232"/>
<path class="l4" d="M214.483 407.232L221.036 426.893"/>
<path class="l4" d="M207.929 426.893L214.483 407.232"/>
<path class="l4" d="M201.375 407.232L207.929 426.893"/>
<path class="l4" d="M194.821 426.893L201.375 407.232"/>
<path class="l4" d="M191.544 417.063L194.821 426.893"/>
<path class="l4" d="M178.437 417.063L191.544 417.063"/>
<path class="l4" d="M188.267 407.232L188.267 413.786"/>
<path class="l4" d="M184.99 410.509L191.544 410.509"/>
<path class="l4" d="M309.513 528.478L309.513 541.585"/>
<path class="l4" d="M309.513 528.478L319.344 525.201"/>
<path class="l4" d="M299.682 518.647L319.344 525.201"/>
<path class="l4" d="M299.682 518.647L319.344 512.093"/>
<path class="l4" d="M299.682 505.539L319.344 512.093"/>
<path class="l4" d="M299.682 505.539L319.344 498.986"/>
<path class="l4" d="M299.682 492.432L319.344 498.986"/>
<path class="l4" d="M299.682 492.432L319.344 485.878"/>
<path class="l4" d="M299.682 479.324L319.344 485.878"/>
<path class="l4" d="M299.682 479.324L309.513 476.047"/>
<path class="l4" d="M309.513 462.94L309.513 476.047"/>
<path class="l4" d="M312.79 472.77L319.344 472.77"/>
<path class="l4" d="M316.067 469.493L316.067 476.047"/>
<path class="l4" d="M309.513 580.908L309.513 597.293"/>
<path class="l4" d="M302.959 597.293L316.067 597.293"/>
<path class="l4" d="M309.513 603.847L316.067 597.293"/>
<path class="l4" d="M302.959 597.293L309.513 603.847"/>
<path class="l5" d="M661.781 127.056L665.058 127.056L665.058 130.333L661.781 130.333L661.781 127.056z"/>
<path class="l5" d="M950.15 127.056L953.427 127.056L953.427 130.333L950.15 130.333L950.15 127.056z"/>
<path class="l5" d="M661.781 349.886L665.058 349.886L665.058 353.163L661.781 353.163L661.781 349.886z"/>
<path class="l5" d="M661.781 480.963L665.058 480.963L665.058 484.239L661.781 484.239L661.781 480.963z"/>
<path class="l5" d="M792.858 480.963L796.135 480.963L796.135 484.239L792.858 484.239L792.858 480.963z"/>
<path class="l5" d="M950.15 480.963L953.427 480.963L953.427 484.239L950.15 484.239L950.15 480.963z"/>
<path class="l5" d="M661.781 271.24L665.058 271.24L665.058 274.517L661.781 274.517L661.781 271.24z"/>
<path class="l5" d="M570.028 205.702L573.305 205.702L573.305 208.979L570.028 208.979L570.028 205.702z"/>
<path class="l5" d="M570.028 415.424L573.305 415.424L573.305 418.701L570.028 418.701L570.028 415.424z"/>
<path class="l5" d="M1041.9 205.702L1045.18 205.702L1045.18 208.979L1041.9 208.979L1041.9 205.702z"/>
<path class="l5" d="M1041.9 415.424L1045.18 415.424L1045.18 418.701L1041.9 418.701L1041.9 415.424z"/>
<path class="l5" d="M781.389 561.247L788.762 554.898L795.52 554.898L802.893 561.247L795.52 567.596L788.762 567.596L781.389 561.247"/>
<path class="l5" d="M781.376 561.234L781.401 561.234L781.401 561.26L781.376 561.26L781.376 561.234z"/>
<path class="l5" d="M781.389 63.1561L788.762 56.8071L795.52 56.8071L802.893 63.1561L795.52 69.5052L788.762 69.5052L781.389 63.1561"/>
<path class="l5" d="M781.376 63.1433L781.401 63.1433L781.401 63.1689L781.376 63.1689L781.376 63.1433z"/>
<path class="l5" d="M753.535 61.5177L756.812 61.5177L756.812 64.7946L753.535 64.7946L753.535 61.5177z"/>
<path class="l5" d="M753.535 559.608L756.812 559.608L756.812 562.885L753.535 562.885L753.535 559.608z"/>
<path class="l5" d="M792.858 127.056L796.135 127.056L796.135 130.333L792.858 130.333L792.858 127.056z"/>
<path class="l5" d="M607.712 204.063L614.266 204.063L614.266 210.617L607.712 210.617L607.712 204.063z"/>
<path class="l5" d="M660.143 164.74L666.697 164.74L666.697 171.294L660.143 171.294L660.143 164.74z"/>
<path class="l5" d="M660.143 243.386L666.697 243.386L666.697 249.94L660.143 249.94L660.143 243.386z"/>
<path class="l5" d="M712.573 204.063L719.127 204.063L719.127 210.617L712.573 210.617L712.573 204.063z"/>
<path class="l5" d="M738.789 308.925L745.343 308.925L745.343 315.478L738.789 315.478L738.789 308.925z"/>
<path class="l5" d="M791.219 269.602L797.773 269.602L797.773 276.155L791.219 276.155L791.219 269.602z"/>
<path class="l5" d="M791.219 348.248L797.773 348.248L797.773 354.801L791.219 354.801L791.219 348.248z"/>
<path class="l5" d="M843.65 308.925L850.204 308.925L850.204 315.478L843.65 315.478L843.65 308.925z"/>
<path class="l5" d="M607.712 413.786L614.266 413.786L614.266 420.34L607.712 420.34L607.712 413.786z"/>
<path class="l5" d="M660.143 374.463L666.697 374.463L666.697 381.017L660.143 381.017L660.143 374.463z"/>
<path class="l5" d="M660.143 453.109L666.697 453.109L666.697 459.663L660.143 459.663L660.143 453.109z"/>
<path class="l5" d="M712.573 413.786L719.127 413.786L719.127 420.34L712.573 420.34L712.573 413.786z"/>
<path class="l5" d="M896.081 308.925L902.634 308.925L902.634 315.478L896.081 315.478L896.081 308.925z"/>
<path class="l5" d="M948.511 269.602L955.065 269.602L955.065 276.155L948.511 276.155L948.511 269.602z"/>
<path class="l5" d="M948.511 348.248L955.065 348.248L955.065 354.801L948.511 354.801L948.511 348.248z"/>
<path class="l5" d="M1000.94 308.925L1007.5 308.925L1007.5 315.478L1000.94 315.478L1000.94 308.925z"/>
<path class="l5" d="M1050.1 207.34L1057.47 200.991L1064.23 200.991L1071.6 207.34L1064.23 213.689L1057.47 213.689L1050.1 207.34"/>
<path class="l5" d="M1050.08 207.328L1050.11 207.328L1050.11 207.353L1050.08 207.353L1050.08 207.328z"/>
<path class="l5" d="M1050.1 417.063L1057.47 410.714L1064.23 410.714L1071.6 417.063L1064.23 423.412L1057.47 423.412L1050.1 417.063"/>
<path class="l5" d="M1050.08 417.05L1050.11 417.05L1050.11 417.076L1050.08 417.076L1050.08 417.05z"/>
<path class="l5" d="M538.897 207.34L531.524 213.689L524.765 213.689L517.392 207.34L524.765 200.991L531.524 200.991L538.897 207.34"/>
<path class="l5" d="M538.884 207.328L538.91 207.328L538.91 207.353L538.884 207.353L538.884 207.328z"/>
<path class="l5" d="M538.897 417.063L531.524 423.412L524.765 423.412L517.392 417.063L524.765 410.714L531.524 410.714L538.897 417.063"/>
<path class="l5" d="M538.884 417.05L538.91 417.05L538.91 417.076L538.884 417.076L538.884 417.05z"/>
<path class="l5" d="M214.483 243.386L221.036 243.386L221.036 249.94L214.483 249.94L214.483 243.386z"/>
<path class="l5" d="M214.483 322.032L221.036 322.032L221.036 328.586L214.483 328.586L214.483 322.032z"/>
<path class="l5" d="M306.236 177.848L312.79 177.848L312.79 184.402L306.236 184.402L306.236 177.848z"/>
<path class="l5" d="M306.236 387.571L312.79 387.571L312.79 394.124L306.236 394.124L306.236 387.571z"/>
<path class="l5" d="M397.99 322.032L404.544 322.032L404.544 328.586L397.99 328.586L397.99 322.032z"/>
<path class="l5" d="M397.99 243.386L404.544 243.386L404.544 249.94L397.99 249.94L397.99 243.386z"/>
<path class="l5" d="M1341.74 341.694L1348.29 341.694L1348.29 348.248L1341.74 348.248L1341.74 341.694z"/>
<path class="l5" d="M1289.31 381.017L1295.86 381.017L1295.86 387.571L1289.31 387.571L1289.31 381.017z"/>
<path class="l5" d="M1341.74 420.34L1348.29 420.34L1348.29 426.893L1341.74 426.893L1341.74 420.34z"/>
<path class="l5" d="M1341.74 302.371L1348.29 302.371L1348.29 308.925L1341.74 308.925L1341.74 302.371z"/>
<path class="l5" d="M1289.31 263.048L1295.86 263.048L1295.86 269.602L1289.31 269.602L1289.31 263.048z"/>
<path class="l5" d="M1341.74 223.725L1348.29 223.725L1348.29 230.279L1341.74 230.279L1341.74 223.725z"/>
<path class="l5" d="M1246.71 325.309L1238.52 318.755L1227.87 318.755L1227.87 331.863L1238.52 331.863L1246.71 325.309"/>
<path class="l5" d="M1246.7 325.296L1246.72 325.296L1246.72 325.322L1246.7 325.322L1246.7 325.296z"/>
<path class="l5" d="M1345.02 174.571L1352.39 168.222L1359.15 168.222L1366.52 174.571L1359.15 180.92L1352.39 180.92L1345.02 174.571"/>
<path class="l5" d="M1345 174.558L1345.03 174.558L1345.03 174.584L1345 174.584L1345 174.558z"/>
<path class="l5" d="M1345.02 476.047L1352.39 469.698L1359.15 469.698L1366.52 476.047L1359.15 482.396L1352.39 482.396L1345.02 476.047"/>
<path class="l5" d="M1345 476.034L1345.03 476.034L1345.03 476.06L1345 476.06L1345 476.034z"/>
<path class="l5" d="M1410.56 318.755L1410.56 331.863L1421.21 331.863L1429.4 325.309L1421.21 318.755L1410.56 318.755"/>
<path class="l5" d="M1410.54 325.296L1410.57 325.296L1410.57 325.322L1410.54 325.322L1410.54 325.296z"/>
<path class="l5" d="M175.16 413.786L181.714 413.786L181.714 420.34L175.16 420.34L175.16 413.786z"/>
<path class="l5" d="M253.806 413.786L260.359 413.786L260.359 420.34L253.806 420.34L253.806 413.786z"/>
<path class="l5" d="M306.236 459.663L312.79 459.663L312.79 466.216L306.236 466.216L306.236 459.663z"/>
<path class="l5" d="M306.236 538.309L312.79 538.309L312.79 544.862L306.236 544.862L306.236 538.309z"/>
<path class="l5" d="M119.452 417.063L111.26 410.509L100.61 410.509L100.61 423.617L111.26 423.617L119.452 417.063"/>
<path class="l5" d="M119.439 417.05L119.465 417.05L119.465 417.076L119.439 417.076L119.439 417.05z"/>
<path class="l5" d="M306.236 577.631L312.79 577.631L312.79 584.185L306.236 584.185L306.236 577.631z"/>
<path class="l1" d="M532.343 207.34L610.989 207.34"/>
<path class="l1" d="M532.343 417.063L610.989 417.063"/>
<path class="l1" d="M715.85 207.34L1056.65 207.34"/>
<path class="l1" d="M715.85 417.063L1056.65 417.063"/>
<path class="l1" d="M742.066 207.34L742.066 312.202"/>
<path class="l1" d="M846.927 312.202L846.927 417.063"/>
<path class="l1" d="M899.357 312.202L899.357 417.063"/>
<path class="l1" d="M1004.22 207.34L1004.22 312.202"/>
<path class="l1" d="M794.496 102.479L794.496 272.879"/>
<path class="l1" d="M951.788 102.479L951.788 272.879"/>
<path class="l1" d="M794.496 351.524L794.496 508.816"/>
<path class="l1" d="M951.788 351.524L951.788 508.816"/>
<path class="l1" d="M663.42 102.479L663.42 168.017"/>
<path class="l1" d="M663.42 325.309L663.42 377.74"/>
<path class="l1" d="M663.42 456.386L663.42 508.816"/>
<path class="l1" d="M663.42 246.663L663.42 299.094"/>
<path class="l1" d="M702.743 561.247L781.389 561.247"/>
<path class="l1" d="M702.743 63.1561L781.389 63.1561"/>
<path class="l1" d="M1345.02 305.648L1345.02 344.971"/>
<path class="l1" d="M1272.93 266.325L1272.93 384.294"/>
<path class="l1" d="M1345.02 423.617L1345.02 449.832"/>
<path class="l1" d="M1345.02 174.571L1345.02 227.002"/>
<path class="l1" d="M1345.02 449.832L1345.02 476.047"/>
<path class="l1" d="M1345.02 325.309L1410.56 325.309"/>
<path class="l1" d="M1272.93 266.325L1292.59 266.325"/>
<path class="l1" d="M1272.93 384.294L1292.59 384.294"/>
<path class="l1" d="M1246.71 325.309L1272.93 325.309"/>
<path class="l1" d="M309.513 390.847L309.513 462.94"/>
<path class="l1" d="M257.083 417.063L309.513 417.063"/>
<path class="l1" d="M309.513 541.585L309.513 580.908"/>
<path class="l1" d="M119.452 417.063L178.437 417.063"/>
<circle class="l1" cx="309.513" cy="417.063" r="4.98091"/>
<circle class="l1" cx="742.066" cy="207.34" r="4.98091"/>
<circle class="l1" cx="1272.93" cy="325.309" r="4.98091"/>
<circle class="l1" cx="1004.22" cy="207.34" r="4.98091"/>
<circle class="l1" cx="899.357" cy="417.063" r="4.98091"/>
<circle class="l1" cx="846.927" cy="417.063" r="4.98091"/>
<circle class="l1" cx="1345.02" cy="325.309" r="4.98091"/>
</svg>
