<svg xmlns="http://www.w3.org/2000/svg" width="1600" height="646" version="1.1">
<style type="text/css">
.l0{
 fill: #ffffff;
  stroke: #ffffff;
  stroke-linecap:round;
  stroke-linejoin:round;
  stroke-width: 2.25583;
}
.l1{
 fill: #0044ee;
  stroke: #0044ee;
  stroke-linecap:round;
  stroke-linejoin:round;
  stroke-width: 2.25583;
}
.l2{
  fill: none;
  stroke: #aaaaaa;
  stroke-linecap:round;
  stroke-linejoin:round;
  stroke-width: 2.25583;
}
.l3{
 fill: #222222; fill-opacity: 0.5;
  stroke: #222222;
  stroke-linecap:round;
  stroke-linejoin:round;
  stroke-width: 2.25583;
}
.l4{
 fill: #229900;
  stroke: #229900;
  stroke-linecap:round;
  stroke-linejoin:round;
  stroke-width: 2.25583;
}
.l5{
 fill: #bb2200;
  stroke: #bb2200;
  stroke-linecap:round;
  stroke-linejoin:round;
  stroke-width: 2.25583;
}
.l6{
 fill: #00ccee; fill-opacity: 0.5;
  stroke: #00ccee;
  stroke-linecap:round;
  stroke-linejoin:round;
  stroke-width: 2.25583;
}
.l7{
 fill: #ff0000; fill-opacity: 0.5;
  stroke: #ff0000;
  stroke-linecap:round;
  stroke-linejoin:round;
  stroke-width: 2.25583;
}
.l8{
 fill: #888800; fill-opacity: 0.5;
  stroke: #888800;
  stroke-linecap:round;
  stroke-linejoin:round;
  stroke-width: 2.25583;
}
.l9{
 fill: #00aaaa; fill-opacity: 0.5;
  stroke: #00aaaa;
  stroke-linecap:round;
  stroke-linejoin:round;
  stroke-width: 2.25583;
}
.l10{
 fill: #880088;
  stroke: #880088;
  stroke-linecap:round;
  stroke-linejoin:round;
  stroke-width: 2.25583;
}
.l11{
 fill: #00ff00; fill-opacity: 0.5;
  stroke: #00ff00;
  stroke-linecap:round;
  stroke-linejoin:round;
  stroke-width: 2.25583;
}
.l12{
 fill: #0000cc; fill-opacity: 0.5;
  stroke: #0000cc;
  stroke-linecap:round;
  stroke-linejoin:round;
  stroke-width: 2.25583;
}
.l13{
 fill: #666600; fill-opacity: 0.5;
  stroke: #666600;
  stroke-linecap:round;
  stroke-linejoin:round;
  stroke-width: 2.25583;
}
.l14{
  fill: none;
  stroke: #557755;
  stroke-linecap:round;
  stroke-linejoin:round;
  stroke-width: 2.25583;
}
.l15{
 fill: #aa2222; fill-opacity: 0.5;
  stroke: #aa2222;
  stroke-linecap:round;
  stroke-linejoin:round;
  stroke-width: 2.25583;
}
.l16{
 fill: #7ccc40; fill-opacity: 0.5;
  stroke: #7ccc40;
  stroke-linecap:round;
  stroke-linejoin:round;
  stroke-width: 2.25583;
}
.l17{
  fill: none;
  stroke: #00ffcc;
  stroke-linecap:round;
  stroke-linejoin:round;
  stroke-width: 2.25583;
}
.l18{
 fill: #ce0097; fill-opacity: 0.5;
  stroke: #ce0097;
  stroke-linecap:round;
  stroke-linejoin:round;
  stroke-width: 2.25583;
}
.l19{
  fill: none;
  stroke: #d2d46b;
  stroke-linecap:round;
  stroke-linejoin:round;
  stroke-width: 2.25583;
}
.l20{
  fill: none;
  stroke: #ef6158;
  stroke-linecap:round;
  stroke-linejoin:round;
  stroke-width: 2.25583;
}
.l21{
  fill: none;
  stroke: #fdb200;
  stroke-linecap:round;
  stroke-linejoin:round;
  stroke-width: 2.25583;
}
text {font-family: Sans-Serif;}
</style>
<rect class="l0" x="0" y="0" width="1600" height="646"/>
<text fill="#0044ee"  xml:space="preserve" font-size="35.8427" transform="translate(751.651, 81.6678)" >VPWR</text>
<text fill="#0044ee"  xml:space="preserve" font-size="35.8427" transform="translate(751.651, 562.076)" >VGND</text>
<text fill="#0044ee"  xml:space="preserve" font-size="35.8427" transform="translate(520.715, 311.428)" >A</text>
<text fill="#0044ee"  xml:space="preserve" font-size="35.8427" transform="translate(814.64, 311.428)" >Y</text>
<text fill="#222222"  xml:space="preserve" font-size="21.7228" transform="translate(645.872, 149.785)" >M1</text>
<text fill="#ff0000"  xml:space="preserve" font-size="16.2921" transform="translate(715.425, 244.069)" >D</text>
<text fill="#ff0000"  xml:space="preserve" font-size="16.2921" transform="translate(715.425, 152.276)" >S</text>
<text fill="#ff0000"  xml:space="preserve" font-size="16.2921" transform="translate(634.541, 186.629)" >G</text>
<text fill="#222222"  xml:space="preserve" font-size="21.7228" transform="translate(731.09, 169.255)" >pfet_01v8</text>
<text fill="#666600"  xml:space="preserve" font-size="21.7228" transform="translate(733.701, 235.946)" >1 x "Wp" / "L"</text>
<text fill="#222222"  xml:space="preserve" font-size="21.7228" transform="translate(645.872, 358.659)" >M2</text>
<text fill="#ff0000"  xml:space="preserve" font-size="16.2921" transform="translate(715.425, 452.942)" >S</text>
<text fill="#ff0000"  xml:space="preserve" font-size="16.2921" transform="translate(715.425, 361.15)" >D</text>
<text fill="#ff0000"  xml:space="preserve" font-size="16.2921" transform="translate(634.541, 395.502)" >G</text>
<text fill="#222222"  xml:space="preserve" font-size="21.7228" transform="translate(731.09, 378.128)" >nfet_01v8</text>
<text fill="#666600"  xml:space="preserve" font-size="21.7228" transform="translate(733.701, 444.819)" >1 x "Wn" / "L"</text>
<path class="l4" d="M684.094 145.727L684.094 239.72"/>
<path class="l4" d="M710.203 130.061L710.203 156.17"/>
<path class="l4" d="M710.203 229.276L710.203 255.385"/>
<path class="l4" d="M673.65 161.392L673.65 224.054"/>
<path class="l4" d="M684.094 229.276L710.203 229.276"/>
<path class="l4" d="M694.537 156.17L710.203 156.17"/>
<path class="l4" d="M626.654 192.723L652.763 192.723"/>
<path class="l4" d="M694.537 150.948L684.094 156.17L694.537 161.392L694.537 150.948"/>
<circle class="l4" cx="663.206" cy="192.723" r="10.4437" style="fill:none;"/>
<path class="l4" d="M684.094 354.6L684.094 448.593"/>
<path class="l4" d="M626.654 401.596L673.65 401.596"/>
<path class="l4" d="M710.203 338.934L710.203 365.044"/>
<path class="l4" d="M710.203 438.149L710.203 464.258"/>
<path class="l4" d="M673.65 370.265L673.65 432.927"/>
<path class="l4" d="M684.094 365.044L710.203 365.044"/>
<path class="l4" d="M684.094 438.149L699.759 438.149"/>
<path class="l4" d="M699.759 432.927L710.203 438.149L699.759 443.371L699.759 432.927"/>
<path class="l5" d="M704.981 250.163L715.425 250.163L715.425 260.607L704.981 260.607L704.981 250.163z"/>
<path class="l5" d="M621.432 187.501L631.875 187.501L631.875 197.945L621.432 197.945L621.432 187.501z"/>
<path class="l5" d="M704.981 124.839L715.425 124.839L715.425 135.283L704.981 135.283L704.981 124.839z"/>
<path class="l5" d="M704.981 333.713L715.425 333.713L715.425 344.156L704.981 344.156L704.981 333.713z"/>
<path class="l5" d="M621.432 396.375L631.875 396.375L631.875 406.818L621.432 406.818L621.432 396.375z"/>
<path class="l5" d="M704.981 459.037L715.425 459.037L715.425 469.48L704.981 469.48L704.981 459.037z"/>
<path class="l5" d="M710.203 67.3991L721.952 57.2818L732.722 57.2818L744.471 67.3991L732.722 77.5164L721.952 77.5164L710.203 67.3991"/>
<path class="l5" d="M710.182 67.3787L710.223 67.3787L710.223 67.4195L710.182 67.4195L710.182 67.3787z"/>
<path class="l5" d="M710.203 547.808L721.952 537.69L732.722 537.69L744.471 547.808L732.722 557.925L721.952 557.925L710.203 547.808"/>
<path class="l5" d="M710.182 547.787L710.223 547.787L710.223 547.828L710.182 547.828L710.182 547.787z"/>
<path class="l5" d="M584.879 297.16L571.824 286.716L554.853 286.716L554.853 307.603L571.824 307.603L584.879 297.16"/>
<path class="l5" d="M584.859 297.139L584.899 297.139L584.899 297.18L584.859 297.18L584.859 297.139z"/>
<path class="l5" d="M772.865 286.716L772.865 307.603L789.836 307.603L802.89 297.16L789.836 286.716L772.865 286.716"/>
<path class="l5" d="M772.845 297.139L772.885 297.139L772.885 297.18L772.845 297.18L772.845 297.139z"/>
<path class="l1" d="M626.654 192.723L626.654 401.596"/>
<path class="l1" d="M710.203 255.385L710.203 338.934"/>
<path class="l1" d="M710.203 464.258L710.203 547.808"/>
<path class="l1" d="M710.203 67.3991L710.203 130.061"/>
<path class="l1" d="M584.879 297.16L626.654 297.16"/>
<path class="l1" d="M710.203 297.16L772.865 297.16"/>
<circle class="l1" cx="626.654" cy="297.16" r="8.35493"/>
<circle class="l1" cx="710.203" cy="297.16" r="8.35493"/>
</svg>
