<svg xmlns="http://www.w3.org/2000/svg" width="1600" height="646" version="1.1">
<style type="text/css">
.l0{
 fill: #ffffff;
  stroke: #ffffff;
  stroke-linecap:round;
  stroke-linejoin:round;
  stroke-width: 0.839087;
}
.l1{
 fill: #0044ee;
  stroke: #0044ee;
  stroke-linecap:round;
  stroke-linejoin:round;
  stroke-width: 0.839087;
}
.l2{
  fill: none;
  stroke: #aaaaaa;
  stroke-linecap:round;
  stroke-linejoin:round;
  stroke-width: 0.839087;
}
.l3{
 fill: #222222; fill-opacity: 0.5;
  stroke: #222222;
  stroke-linecap:round;
  stroke-linejoin:round;
  stroke-width: 0.839087;
}
.l4{
 fill: #229900;
  stroke: #229900;
  stroke-linecap:round;
  stroke-linejoin:round;
  stroke-width: 0.839087;
}
.l5{
 fill: #bb2200;
  stroke: #bb2200;
  stroke-linecap:round;
  stroke-linejoin:round;
  stroke-width: 0.839087;
}
.l6{
 fill: #00ccee; fill-opacity: 0.5;
  stroke: #00ccee;
  stroke-linecap:round;
  stroke-linejoin:round;
  stroke-width: 0.839087;
}
.l7{
 fill: #ff0000; fill-opacity: 0.5;
  stroke: #ff0000;
  stroke-linecap:round;
  stroke-linejoin:round;
  stroke-width: 0.839087;
}
.l8{
 fill: #888800; fill-opacity: 0.5;
  stroke: #888800;
  stroke-linecap:round;
  stroke-linejoin:round;
  stroke-width: 0.839087;
}
.l9{
 fill: #00aaaa; fill-opacity: 0.5;
  stroke: #00aaaa;
  stroke-linecap:round;
  stroke-linejoin:round;
  stroke-width: 0.839087;
}
.l10{
 fill: #880088;
  stroke: #880088;
  stroke-linecap:round;
  stroke-linejoin:round;
  stroke-width: 0.839087;
}
.l11{
 fill: #00ff00; fill-opacity: 0.5;
  stroke: #00ff00;
  stroke-linecap:round;
  stroke-linejoin:round;
  stroke-width: 0.839087;
}
.l12{
 fill: #0000cc; fill-opacity: 0.5;
  stroke: #0000cc;
  stroke-linecap:round;
  stroke-linejoin:round;
  stroke-width: 0.839087;
}
.l13{
 fill: #666600; fill-opacity: 0.5;
  stroke: #666600;
  stroke-linecap:round;
  stroke-linejoin:round;
  stroke-width: 0.839087;
}
.l14{
  fill: none;
  stroke: #557755;
  stroke-linecap:round;
  stroke-linejoin:round;
  stroke-width: 0.839087;
}
.l15{
 fill: #aa2222; fill-opacity: 0.5;
  stroke: #aa2222;
  stroke-linecap:round;
  stroke-linejoin:round;
  stroke-width: 0.839087;
}
.l16{
 fill: #7ccc40; fill-opacity: 0.5;
  stroke: #7ccc40;
  stroke-linecap:round;
  stroke-linejoin:round;
  stroke-width: 0.839087;
}
.l17{
  fill: none;
  stroke: #00ffcc;
  stroke-linecap:round;
  stroke-linejoin:round;
  stroke-width: 0.839087;
}
.l18{
 fill: #ce0097; fill-opacity: 0.5;
  stroke: #ce0097;
  stroke-linecap:round;
  stroke-linejoin:round;
  stroke-width: 0.839087;
}
.l19{
  fill: none;
  stroke: #d2d46b;
  stroke-linecap:round;
  stroke-linejoin:round;
  stroke-width: 0.839087;
}
.l20{
  fill: none;
  stroke: #ef6158;
  stroke-linecap:round;
  stroke-linejoin:round;
  stroke-width: 0.839087;
}
.l21{
  fill: none;
  stroke: #fdb200;
  stroke-linecap:round;
  stroke-linejoin:round;
  stroke-width: 0.839087;
}
text {font-family: Sans-Serif;}
</style>
<rect class="l0" x="0" y="0" width="1600" height="646"/>
<text fill="#0044ee"  xml:space="preserve" font-size="8.0801" transform="translate(442.693, 571.541)" >GND</text>
<text fill="#0044ee"  xml:space="preserve" font-size="13.3322" transform="translate(299.951, 484.049)" >input</text>
<text fill="#ff0000"  xml:space="preserve" font-size="13.3322" transform="translate(1406.09, 81.7474)" >out_0</text>
<text fill="#0044ee"  xml:space="preserve" font-size="10.9081" transform="translate(902.391, 106.12)" >CLK</text>
<text fill="#0044ee"  xml:space="preserve" font-size="10.9081" transform="translate(1106.97, 81.7276)" >CLK</text>
<text fill="#0044ee"  xml:space="preserve" font-size="10.9081" transform="translate(1035.78, 78.9277)" >DFF_1_0</text>
<text fill="#0044ee"  xml:space="preserve" font-size="10.9081" transform="translate(1254.59, 105.036)" >DFF_2_0</text>
<text fill="#0044ee"  xml:space="preserve" font-size="10.9081" transform="translate(894.391, 121.659)" >vco_0</text>
<text fill="#888800"  xml:space="preserve" font-size="13.3322" transform="translate(1409.97, 167.21)" >out_1</text>
<text fill="#0044ee"  xml:space="preserve" font-size="10.9081" transform="translate(906.275, 191.583)" >CLK</text>
<text fill="#0044ee"  xml:space="preserve" font-size="10.9081" transform="translate(1110.85, 167.19)" >CLK</text>
<text fill="#0044ee"  xml:space="preserve" font-size="10.9081" transform="translate(1039.66, 164.39)" >DFF_1_1</text>
<text fill="#0044ee"  xml:space="preserve" font-size="10.9081" transform="translate(1258.47, 190.498)" >DFF_2_1</text>
<text fill="#0044ee"  xml:space="preserve" font-size="10.9081" transform="translate(898.275, 207.122)" >vco_1</text>
<text fill="#00aaaa"  xml:space="preserve" font-size="13.3322" transform="translate(1409.97, 244.903)" >out_2</text>
<text fill="#0044ee"  xml:space="preserve" font-size="10.9081" transform="translate(906.275, 269.276)" >CLK</text>
<text fill="#0044ee"  xml:space="preserve" font-size="10.9081" transform="translate(1110.85, 244.883)" >CLK</text>
<text fill="#0044ee"  xml:space="preserve" font-size="10.9081" transform="translate(1039.66, 242.084)" >DFF_1_2</text>
<text fill="#0044ee"  xml:space="preserve" font-size="10.9081" transform="translate(1258.47, 268.191)" >DFF_2_2</text>
<text fill="#0044ee"  xml:space="preserve" font-size="10.9081" transform="translate(898.275, 284.815)" >vco_2</text>
<text fill="#880088"  xml:space="preserve" font-size="13.3322" transform="translate(1413.86, 330.366)" >out_3</text>
<text fill="#0044ee"  xml:space="preserve" font-size="10.9081" transform="translate(910.16, 354.739)" >CLK</text>
<text fill="#0044ee"  xml:space="preserve" font-size="10.9081" transform="translate(1114.74, 330.346)" >CLK</text>
<text fill="#0044ee"  xml:space="preserve" font-size="10.9081" transform="translate(1043.55, 327.546)" >DFF_1_3</text>
<text fill="#0044ee"  xml:space="preserve" font-size="10.9081" transform="translate(1262.36, 353.654)" >DFF_2_3</text>
<text fill="#0044ee"  xml:space="preserve" font-size="10.9081" transform="translate(902.16, 370.277)" >vco_3</text>
<text fill="#00ff00"  xml:space="preserve" font-size="13.3322" transform="translate(1413.86, 411.944)" >out_4</text>
<text fill="#0044ee"  xml:space="preserve" font-size="10.9081" transform="translate(910.16, 436.317)" >CLK</text>
<text fill="#0044ee"  xml:space="preserve" font-size="10.9081" transform="translate(1114.74, 411.924)" >CLK</text>
<text fill="#0044ee"  xml:space="preserve" font-size="10.9081" transform="translate(1043.55, 409.124)" >DFF_1_4</text>
<text fill="#0044ee"  xml:space="preserve" font-size="10.9081" transform="translate(1262.36, 435.232)" >DFF_2_4</text>
<text fill="#0044ee"  xml:space="preserve" font-size="10.9081" transform="translate(902.16, 451.855)" >vco_4</text>
<text fill="#0044ee"  xml:space="preserve" font-size="8.0801" transform="translate(458.231, 89.8426)" >VDD_A</text>
<text fill="#0044ee"  xml:space="preserve" font-size="13.3322" transform="translate(93.2656, 480.65)" >ENB</text>
<text fill="#0044ee"  xml:space="preserve" font-size="13.3322" transform="translate(260.113, 446.906)" >pn_0</text>
<text fill="#0044ee"  xml:space="preserve" font-size="13.3322" transform="translate(221.344, 340.802)" >pn_0</text>
<text fill="#0044ee"  xml:space="preserve" font-size="10.9081" transform="translate(226.229, 207.122)" >vco_0</text>
<text fill="#0044ee"  xml:space="preserve" font-size="10.9081" transform="translate(366.077, 207.122)" >vco_1</text>
<text fill="#0044ee"  xml:space="preserve" font-size="10.9081" transform="translate(505.924, 207.122)" >vco_2</text>
<text fill="#0044ee"  xml:space="preserve" font-size="10.9081" transform="translate(645.772, 207.122)" >vco_3</text>
<text fill="#0044ee"  xml:space="preserve" font-size="10.9081" transform="translate(858.351, 260.422)" >vco_4</text>
<text fill="#0044ee"  xml:space="preserve" font-size="10.9081" transform="translate(469.885, 489.617)" >V_ctrl</text>
<text fill="#0044ee"  xml:space="preserve" font-size="8.0801" transform="translate(96.9576, 420.039)" >VDD_A</text>
<text fill="#222222"  xml:space="preserve" font-size="8.0801" transform="translate(398.558, 501.395) rotate(270)" >R1</text>
<text fill="#222222"  xml:space="preserve" font-size="8.0801" transform="translate(404.384, 467.087) rotate(270)" >100</text>
<text fill="#666600"  xml:space="preserve" font-size="8.0801" transform="translate(388.846, 491.511) rotate(270)" >1</text>
<text fill="#666600"  xml:space="preserve" font-size="8.0801" transform="translate(421.865, 491.511) rotate(270)" >2</text>
<text fill="#222222"  xml:space="preserve" font-size="8.0801" transform="translate(410.211, 510.395) rotate(270)" >m=1</text>
<text fill="#222222"  xml:space="preserve" font-size="8.0801" transform="translate(414.212, 514.242)" >R2</text>
<text fill="#222222"  xml:space="preserve" font-size="8.0801" transform="translate(448.52, 520.069)" >100</text>
<text fill="#666600"  xml:space="preserve" font-size="8.0801" transform="translate(424.096, 504.53)" >1</text>
<text fill="#666600"  xml:space="preserve" font-size="8.0801" transform="translate(424.096, 537.55)" >2</text>
<text fill="#222222"  xml:space="preserve" font-size="8.0801" transform="translate(405.212, 525.896)" >m=1</text>
<text fill="#222222"  xml:space="preserve" font-size="12.1201" transform="translate(981.026, 123.811)" >dfxtp_1</text>
<text fill="#222222"  xml:space="preserve" font-size="8.0801" transform="translate(1062.3, 99.9427)" >x2</text>
<text fill="#222222"  xml:space="preserve" font-size="8.0801" transform="translate(953.526, 113.928)" >CLK</text>
<text fill="#222222"  xml:space="preserve" font-size="8.0801" transform="translate(953.526, 129.466)" >D</text>
<text fill="#222222"  xml:space="preserve" font-size="8.0801" transform="translate(1048.53, 113.928)" >Q</text>
<text fill="#222222"  xml:space="preserve" font-size="12.1201" transform="translate(1151.95, 108.273)" >dfxtp_1</text>
<text fill="#222222"  xml:space="preserve" font-size="8.0801" transform="translate(1233.22, 84.4041)" >x3</text>
<text fill="#222222"  xml:space="preserve" font-size="8.0801" transform="translate(1124.45, 98.3889)" >CLK</text>
<text fill="#222222"  xml:space="preserve" font-size="8.0801" transform="translate(1124.45, 113.928)" >D</text>
<text fill="#222222"  xml:space="preserve" font-size="8.0801" transform="translate(1219.45, 98.3889)" >Q</text>
<text fill="#222222"  xml:space="preserve" font-size="8.0801" transform="translate(1279.84, 59.5422)" >A</text>
<text fill="#222222"  xml:space="preserve" font-size="8.0801" transform="translate(1279.84, 90.6195)" >B</text>
<text fill="#222222"  xml:space="preserve" font-size="8.0801" transform="translate(1359.3, 75.0809)" >X</text>
<text fill="#222222"  xml:space="preserve" font-size="8.0801" transform="translate(1309.94, 82.0733)" >x4</text>
<text fill="#222222"  xml:space="preserve" font-size="8.0801" transform="translate(1303.15, 50.996)" >xor2_1</text>
<text fill="#222222"  xml:space="preserve" font-size="12.1201" transform="translate(984.911, 209.274)" >dfxtp_1</text>
<text fill="#222222"  xml:space="preserve" font-size="8.0801" transform="translate(1066.18, 185.405)" >x1</text>
<text fill="#222222"  xml:space="preserve" font-size="8.0801" transform="translate(957.41, 199.39)" >CLK</text>
<text fill="#222222"  xml:space="preserve" font-size="8.0801" transform="translate(957.41, 214.929)" >D</text>
<text fill="#222222"  xml:space="preserve" font-size="8.0801" transform="translate(1052.41, 199.39)" >Q</text>
<text fill="#222222"  xml:space="preserve" font-size="12.1201" transform="translate(1155.84, 193.735)" >dfxtp_1</text>
<text fill="#222222"  xml:space="preserve" font-size="8.0801" transform="translate(1237.11, 169.867)" >x5</text>
<text fill="#222222"  xml:space="preserve" font-size="8.0801" transform="translate(1128.34, 183.851)" >CLK</text>
<text fill="#222222"  xml:space="preserve" font-size="8.0801" transform="translate(1128.34, 199.39)" >D</text>
<text fill="#222222"  xml:space="preserve" font-size="8.0801" transform="translate(1223.34, 183.851)" >Q</text>
<text fill="#222222"  xml:space="preserve" font-size="8.0801" transform="translate(1283.72, 145.005)" >A</text>
<text fill="#222222"  xml:space="preserve" font-size="8.0801" transform="translate(1283.72, 176.082)" >B</text>
<text fill="#222222"  xml:space="preserve" font-size="8.0801" transform="translate(1363.18, 160.543)" >X</text>
<text fill="#222222"  xml:space="preserve" font-size="8.0801" transform="translate(1313.83, 167.536)" >x6</text>
<text fill="#222222"  xml:space="preserve" font-size="8.0801" transform="translate(1307.03, 136.459)" >xor2_1</text>
<text fill="#222222"  xml:space="preserve" font-size="12.1201" transform="translate(984.911, 286.967)" >dfxtp_1</text>
<text fill="#222222"  xml:space="preserve" font-size="8.0801" transform="translate(1066.18, 263.099)" >x7</text>
<text fill="#222222"  xml:space="preserve" font-size="8.0801" transform="translate(957.41, 277.083)" >CLK</text>
<text fill="#222222"  xml:space="preserve" font-size="8.0801" transform="translate(957.41, 292.622)" >D</text>
<text fill="#222222"  xml:space="preserve" font-size="8.0801" transform="translate(1052.41, 277.083)" >Q</text>
<text fill="#222222"  xml:space="preserve" font-size="12.1201" transform="translate(1155.84, 271.429)" >dfxtp_1</text>
<text fill="#222222"  xml:space="preserve" font-size="8.0801" transform="translate(1237.11, 247.56)" >x8</text>
<text fill="#222222"  xml:space="preserve" font-size="8.0801" transform="translate(1128.34, 261.545)" >CLK</text>
<text fill="#222222"  xml:space="preserve" font-size="8.0801" transform="translate(1128.34, 277.083)" >D</text>
<text fill="#222222"  xml:space="preserve" font-size="8.0801" transform="translate(1223.34, 261.545)" >Q</text>
<text fill="#222222"  xml:space="preserve" font-size="8.0801" transform="translate(1283.72, 222.698)" >A</text>
<text fill="#222222"  xml:space="preserve" font-size="8.0801" transform="translate(1283.72, 253.775)" >B</text>
<text fill="#222222"  xml:space="preserve" font-size="8.0801" transform="translate(1363.18, 238.237)" >X</text>
<text fill="#222222"  xml:space="preserve" font-size="8.0801" transform="translate(1313.83, 245.229)" >x9</text>
<text fill="#222222"  xml:space="preserve" font-size="8.0801" transform="translate(1307.03, 214.152)" >xor2_1</text>
<text fill="#222222"  xml:space="preserve" font-size="12.1201" transform="translate(988.796, 372.43)" >dfxtp_1</text>
<text fill="#222222"  xml:space="preserve" font-size="8.0801" transform="translate(1070.07, 348.561)" >x10</text>
<text fill="#222222"  xml:space="preserve" font-size="8.0801" transform="translate(961.295, 362.546)" >CLK</text>
<text fill="#222222"  xml:space="preserve" font-size="8.0801" transform="translate(961.295, 378.085)" >D</text>
<text fill="#222222"  xml:space="preserve" font-size="8.0801" transform="translate(1056.3, 362.546)" >Q</text>
<text fill="#222222"  xml:space="preserve" font-size="12.1201" transform="translate(1159.72, 356.891)" >dfxtp_1</text>
<text fill="#222222"  xml:space="preserve" font-size="8.0801" transform="translate(1240.99, 333.022)" >x11</text>
<text fill="#222222"  xml:space="preserve" font-size="8.0801" transform="translate(1132.22, 347.007)" >CLK</text>
<text fill="#222222"  xml:space="preserve" font-size="8.0801" transform="translate(1132.22, 362.546)" >D</text>
<text fill="#222222"  xml:space="preserve" font-size="8.0801" transform="translate(1227.22, 347.007)" >Q</text>
<text fill="#222222"  xml:space="preserve" font-size="8.0801" transform="translate(1287.61, 308.161)" >A</text>
<text fill="#222222"  xml:space="preserve" font-size="8.0801" transform="translate(1287.61, 339.238)" >B</text>
<text fill="#222222"  xml:space="preserve" font-size="8.0801" transform="translate(1367.07, 323.699)" >X</text>
<text fill="#222222"  xml:space="preserve" font-size="8.0801" transform="translate(1317.71, 330.692)" >x12</text>
<text fill="#222222"  xml:space="preserve" font-size="8.0801" transform="translate(1310.91, 299.614)" >xor2_1</text>
<text fill="#222222"  xml:space="preserve" font-size="12.1201" transform="translate(988.796, 454.008)" >dfxtp_1</text>
<text fill="#222222"  xml:space="preserve" font-size="8.0801" transform="translate(1070.07, 430.139)" >x13</text>
<text fill="#222222"  xml:space="preserve" font-size="8.0801" transform="translate(961.295, 444.124)" >CLK</text>
<text fill="#222222"  xml:space="preserve" font-size="8.0801" transform="translate(961.295, 459.662)" >D</text>
<text fill="#222222"  xml:space="preserve" font-size="8.0801" transform="translate(1056.3, 444.124)" >Q</text>
<text fill="#222222"  xml:space="preserve" font-size="12.1201" transform="translate(1159.72, 438.469)" >dfxtp_1</text>
<text fill="#222222"  xml:space="preserve" font-size="8.0801" transform="translate(1240.99, 414.6)" >x14</text>
<text fill="#222222"  xml:space="preserve" font-size="8.0801" transform="translate(1132.22, 428.585)" >CLK</text>
<text fill="#222222"  xml:space="preserve" font-size="8.0801" transform="translate(1132.22, 444.124)" >D</text>
<text fill="#222222"  xml:space="preserve" font-size="8.0801" transform="translate(1227.22, 428.585)" >Q</text>
<text fill="#222222"  xml:space="preserve" font-size="8.0801" transform="translate(1287.61, 389.739)" >A</text>
<text fill="#222222"  xml:space="preserve" font-size="8.0801" transform="translate(1287.61, 420.816)" >B</text>
<text fill="#222222"  xml:space="preserve" font-size="8.0801" transform="translate(1367.07, 405.277)" >X</text>
<text fill="#222222"  xml:space="preserve" font-size="8.0801" transform="translate(1317.71, 412.27)" >x15</text>
<text fill="#222222"  xml:space="preserve" font-size="8.0801" transform="translate(1310.91, 381.192)" >xor2_1</text>
<text fill="#222222"  xml:space="preserve" font-size="8.0801" transform="translate(172.708, 241.344)" >VPWR</text>
<text fill="#222222"  xml:space="preserve" font-size="8.0801" transform="translate(172.708, 311.268)" >VGND</text>
<text fill="#222222"  xml:space="preserve" font-size="12.1201" transform="translate(157.17, 276.09)" >in</text>
<text fill="#222222"  xml:space="preserve" font-size="12.1201" transform="translate(203.786, 276.09)" >out</text>
<text fill="#222222"  xml:space="preserve" font-size="8.0801" transform="translate(196.016, 225.806)" >cc_inv</text>
<text fill="#222222"  xml:space="preserve" font-size="8.0801" transform="translate(196.016, 326.807)" >Xi_1</text>
<text fill="#222222"  xml:space="preserve" font-size="8.0801" transform="translate(312.556, 241.344)" >VPWR</text>
<text fill="#222222"  xml:space="preserve" font-size="8.0801" transform="translate(312.556, 311.268)" >VGND</text>
<text fill="#222222"  xml:space="preserve" font-size="12.1201" transform="translate(297.018, 276.09)" >in</text>
<text fill="#222222"  xml:space="preserve" font-size="12.1201" transform="translate(343.634, 276.09)" >out</text>
<text fill="#222222"  xml:space="preserve" font-size="8.0801" transform="translate(335.864, 225.806)" >cc_inv</text>
<text fill="#222222"  xml:space="preserve" font-size="8.0801" transform="translate(335.864, 326.807)" >Xi_2</text>
<text fill="#222222"  xml:space="preserve" font-size="8.0801" transform="translate(452.404, 241.344)" >VPWR</text>
<text fill="#222222"  xml:space="preserve" font-size="8.0801" transform="translate(452.404, 311.268)" >VGND</text>
<text fill="#222222"  xml:space="preserve" font-size="12.1201" transform="translate(436.866, 276.09)" >in</text>
<text fill="#222222"  xml:space="preserve" font-size="12.1201" transform="translate(483.482, 276.09)" >out</text>
<text fill="#222222"  xml:space="preserve" font-size="8.0801" transform="translate(475.712, 225.806)" >cc_inv</text>
<text fill="#222222"  xml:space="preserve" font-size="8.0801" transform="translate(475.712, 326.807)" >Xi_3</text>
<text fill="#222222"  xml:space="preserve" font-size="8.0801" transform="translate(592.252, 241.344)" >VPWR</text>
<text fill="#222222"  xml:space="preserve" font-size="8.0801" transform="translate(592.252, 311.268)" >VGND</text>
<text fill="#222222"  xml:space="preserve" font-size="12.1201" transform="translate(576.713, 276.09)" >in</text>
<text fill="#222222"  xml:space="preserve" font-size="12.1201" transform="translate(623.329, 276.09)" >out</text>
<text fill="#222222"  xml:space="preserve" font-size="8.0801" transform="translate(615.56, 225.806)" >cc_inv</text>
<text fill="#222222"  xml:space="preserve" font-size="8.0801" transform="translate(615.56, 326.807)" >Xi_4</text>
<text fill="#222222"  xml:space="preserve" font-size="8.0801" transform="translate(732.1, 241.344)" >VPWR</text>
<text fill="#222222"  xml:space="preserve" font-size="8.0801" transform="translate(732.1, 311.268)" >VGND</text>
<text fill="#222222"  xml:space="preserve" font-size="12.1201" transform="translate(716.561, 276.09)" >in</text>
<text fill="#222222"  xml:space="preserve" font-size="12.1201" transform="translate(763.177, 276.09)" >out</text>
<text fill="#222222"  xml:space="preserve" font-size="8.0801" transform="translate(755.408, 225.806)" >cc_inv</text>
<text fill="#222222"  xml:space="preserve" font-size="8.0801" transform="translate(755.408, 326.807)" >Xi_5</text>
<text fill="#222222"  xml:space="preserve" font-size="8.0801" transform="translate(168.824, 440.239)" >A</text>
<text fill="#222222"  xml:space="preserve" font-size="8.0801" transform="translate(168.824, 471.316)" >TE</text>
<text fill="#222222"  xml:space="preserve" font-size="8.0801" transform="translate(217.209, 440.239)" >Z</text>
<text fill="#222222"  xml:space="preserve" font-size="8.0801" transform="translate(201.843, 462.77)" >x16</text>
<text fill="#222222"  xml:space="preserve" font-size="8.0801" transform="translate(190.189, 427.808)" >einvp_1</text>
<path class="l4" d="M417.442 478.741L425.212 478.741"/>
<path class="l4" d="M415.5 472.914L417.442 478.741"/>
<path class="l4" d="M411.615 484.568L415.5 472.914"/>
<path class="l4" d="M407.731 472.914L411.615 484.568"/>
<path class="l4" d="M403.846 484.568L407.731 472.914"/>
<path class="l4" d="M399.961 472.914L403.846 484.568"/>
<path class="l4" d="M396.077 484.568L399.961 472.914"/>
<path class="l4" d="M392.192 472.914L396.077 484.568"/>
<path class="l4" d="M388.307 484.568L392.192 472.914"/>
<path class="l4" d="M386.365 478.741L388.307 484.568"/>
<path class="l4" d="M378.596 478.741L386.365 478.741"/>
<path class="l4" d="M384.423 472.914L384.423 476.799"/>
<path class="l4" d="M382.48 474.857L386.365 474.857"/>
<path class="l4" d="M436.866 533.127L436.866 540.896"/>
<path class="l4" d="M436.866 533.127L442.693 531.184"/>
<path class="l4" d="M431.039 527.3L442.693 531.184"/>
<path class="l4" d="M431.039 527.3L442.693 523.415"/>
<path class="l4" d="M431.039 519.53L442.693 523.415"/>
<path class="l4" d="M431.039 519.53L442.693 515.646"/>
<path class="l4" d="M431.039 511.761L442.693 515.646"/>
<path class="l4" d="M431.039 511.761L442.693 507.876"/>
<path class="l4" d="M431.039 503.992L442.693 507.876"/>
<path class="l4" d="M431.039 503.992L436.866 502.049"/>
<path class="l4" d="M436.866 494.28L436.866 502.049"/>
<path class="l4" d="M438.808 500.107L442.693 500.107"/>
<path class="l4" d="M440.75 498.165L440.75 502.049"/>
<path class="l4" d="M436.866 560.319L436.866 570.031"/>
<path class="l4" d="M432.981 570.031L440.75 570.031"/>
<path class="l4" d="M436.866 573.916L440.75 570.031"/>
<path class="l4" d="M432.981 570.031L436.866 573.916"/>
<path class="l4" d="M949.641 101.929L1058.41 101.929"/>
<path class="l4" d="M949.641 133.006L1058.41 133.006"/>
<path class="l4" d="M949.641 101.929L949.641 133.006"/>
<path class="l4" d="M1058.41 101.929L1058.41 133.006"/>
<path class="l4" d="M934.102 109.699L949.641 109.699"/>
<path class="l4" d="M934.102 125.237L949.641 125.237"/>
<path class="l4" d="M1058.41 109.699L1073.95 109.699"/>
<path class="l4" d="M1120.57 86.3905L1229.34 86.3905"/>
<path class="l4" d="M1120.57 117.468L1229.34 117.468"/>
<path class="l4" d="M1120.57 86.3905L1120.57 117.468"/>
<path class="l4" d="M1229.34 86.3905L1229.34 117.468"/>
<path class="l4" d="M1105.03 94.1599L1120.57 94.1599"/>
<path class="l4" d="M1105.03 109.699L1120.57 109.699"/>
<path class="l4" d="M1229.34 94.1599L1244.88 94.1599"/>
<path class="l4" d="M1275.95 63.0826L1295.38 63.0826"/>
<path class="l4" d="M1275.95 94.1599L1295.38 94.1599"/>
<path class="l4" d="M1349.76 78.6212L1369.18 78.6212"/>
<path class="l4" d="M1299.26 55.3132L1310.91 55.3132"/>
<path class="l4" d="M1299.26 101.929L1310.91 101.929"/>
<path class="l4" style="fill:none;" d="M1299.26 101.929 A43.6485 43.6485 0 0 0 1299.26 55.3132"/>
<path class="l4" style="fill:none;" d="M1349.76 78.6212 A52.102 52.102 0 0 0 1310.91 55.3132"/>
<path class="l4" style="fill:none;" d="M1310.91 101.929 A52.102 52.102 0 0 0 1349.76 78.6212"/>
<path class="l4" style="fill:none;" d="M1291.49 101.929 A43.6485 43.6485 0 0 0 1291.49 55.3132"/>
<path class="l4" d="M953.526 187.392L1062.3 187.392"/>
<path class="l4" d="M953.526 218.469L1062.3 218.469"/>
<path class="l4" d="M953.526 187.392L953.526 218.469"/>
<path class="l4" d="M1062.3 187.392L1062.3 218.469"/>
<path class="l4" d="M937.987 195.161L953.526 195.161"/>
<path class="l4" d="M937.987 210.7L953.526 210.7"/>
<path class="l4" d="M1062.3 195.161L1077.83 195.161"/>
<path class="l4" d="M1124.45 171.853L1233.22 171.853"/>
<path class="l4" d="M1124.45 202.93L1233.22 202.93"/>
<path class="l4" d="M1124.45 171.853L1124.45 202.93"/>
<path class="l4" d="M1233.22 171.853L1233.22 202.93"/>
<path class="l4" d="M1108.91 179.622L1124.45 179.622"/>
<path class="l4" d="M1108.91 195.161L1124.45 195.161"/>
<path class="l4" d="M1233.22 179.622L1248.76 179.622"/>
<path class="l4" d="M1279.84 148.545L1299.26 148.545"/>
<path class="l4" d="M1279.84 179.622L1299.26 179.622"/>
<path class="l4" d="M1353.65 164.084L1373.07 164.084"/>
<path class="l4" d="M1303.15 140.776L1314.8 140.776"/>
<path class="l4" d="M1303.15 187.392L1314.8 187.392"/>
<path class="l4" style="fill:none;" d="M1303.15 187.392 A43.6485 43.6485 0 0 0 1303.15 140.776"/>
<path class="l4" style="fill:none;" d="M1353.65 164.084 A52.102 52.102 0 0 0 1314.8 140.776"/>
<path class="l4" style="fill:none;" d="M1314.8 187.392 A52.102 52.102 0 0 0 1353.65 164.084"/>
<path class="l4" style="fill:none;" d="M1295.38 187.392 A43.6485 43.6485 0 0 0 1295.38 140.776"/>
<path class="l4" d="M953.526 265.085L1062.3 265.085"/>
<path class="l4" d="M953.526 296.162L1062.3 296.162"/>
<path class="l4" d="M953.526 265.085L953.526 296.162"/>
<path class="l4" d="M1062.3 265.085L1062.3 296.162"/>
<path class="l4" d="M937.987 272.854L953.526 272.854"/>
<path class="l4" d="M937.987 288.393L953.526 288.393"/>
<path class="l4" d="M1062.3 272.854L1077.83 272.854"/>
<path class="l4" d="M1124.45 249.546L1233.22 249.546"/>
<path class="l4" d="M1124.45 280.624L1233.22 280.624"/>
<path class="l4" d="M1124.45 249.546L1124.45 280.624"/>
<path class="l4" d="M1233.22 249.546L1233.22 280.624"/>
<path class="l4" d="M1108.91 257.316L1124.45 257.316"/>
<path class="l4" d="M1108.91 272.854L1124.45 272.854"/>
<path class="l4" d="M1233.22 257.316L1248.76 257.316"/>
<path class="l4" d="M1279.84 226.238L1299.26 226.238"/>
<path class="l4" d="M1279.84 257.316L1299.26 257.316"/>
<path class="l4" d="M1353.65 241.777L1373.07 241.777"/>
<path class="l4" d="M1303.15 218.469L1314.8 218.469"/>
<path class="l4" d="M1303.15 265.085L1314.8 265.085"/>
<path class="l4" style="fill:none;" d="M1303.15 265.085 A43.6485 43.6485 0 0 0 1303.15 218.469"/>
<path class="l4" style="fill:none;" d="M1353.65 241.777 A52.102 52.102 0 0 0 1314.8 218.469"/>
<path class="l4" style="fill:none;" d="M1314.8 265.085 A52.102 52.102 0 0 0 1353.65 241.777"/>
<path class="l4" style="fill:none;" d="M1295.38 265.085 A43.6485 43.6485 0 0 0 1295.38 218.469"/>
<path class="l4" d="M957.41 350.548L1066.18 350.548"/>
<path class="l4" d="M957.41 381.625L1066.18 381.625"/>
<path class="l4" d="M957.41 350.548L957.41 381.625"/>
<path class="l4" d="M1066.18 350.548L1066.18 381.625"/>
<path class="l4" d="M941.872 358.317L957.41 358.317"/>
<path class="l4" d="M941.872 373.856L957.41 373.856"/>
<path class="l4" d="M1066.18 358.317L1081.72 358.317"/>
<path class="l4" d="M1128.34 335.009L1237.11 335.009"/>
<path class="l4" d="M1128.34 366.086L1237.11 366.086"/>
<path class="l4" d="M1128.34 335.009L1128.34 366.086"/>
<path class="l4" d="M1237.11 335.009L1237.11 366.086"/>
<path class="l4" d="M1112.8 342.778L1128.34 342.778"/>
<path class="l4" d="M1112.8 358.317L1128.34 358.317"/>
<path class="l4" d="M1237.11 342.778L1252.64 342.778"/>
<path class="l4" d="M1283.72 311.701L1303.15 311.701"/>
<path class="l4" d="M1283.72 342.778L1303.15 342.778"/>
<path class="l4" d="M1357.53 327.24L1376.95 327.24"/>
<path class="l4" d="M1307.03 303.932L1318.68 303.932"/>
<path class="l4" d="M1307.03 350.548L1318.68 350.548"/>
<path class="l4" style="fill:none;" d="M1307.03 350.548 A43.6485 43.6485 0 0 0 1307.03 303.932"/>
<path class="l4" style="fill:none;" d="M1357.53 327.24 A52.102 52.102 0 0 0 1318.68 303.932"/>
<path class="l4" style="fill:none;" d="M1318.68 350.548 A52.102 52.102 0 0 0 1357.53 327.24"/>
<path class="l4" style="fill:none;" d="M1299.26 350.548 A43.6485 43.6485 0 0 0 1299.26 303.932"/>
<path class="l4" d="M957.41 432.126L1066.18 432.126"/>
<path class="l4" d="M957.41 463.203L1066.18 463.203"/>
<path class="l4" d="M957.41 432.126L957.41 463.203"/>
<path class="l4" d="M1066.18 432.126L1066.18 463.203"/>
<path class="l4" d="M941.872 439.895L957.41 439.895"/>
<path class="l4" d="M941.872 455.433L957.41 455.433"/>
<path class="l4" d="M1066.18 439.895L1081.72 439.895"/>
<path class="l4" d="M1128.34 416.587L1237.11 416.587"/>
<path class="l4" d="M1128.34 447.664L1237.11 447.664"/>
<path class="l4" d="M1128.34 416.587L1128.34 447.664"/>
<path class="l4" d="M1237.11 416.587L1237.11 447.664"/>
<path class="l4" d="M1112.8 424.356L1128.34 424.356"/>
<path class="l4" d="M1112.8 439.895L1128.34 439.895"/>
<path class="l4" d="M1237.11 424.356L1252.64 424.356"/>
<path class="l4" d="M1283.72 393.279L1303.15 393.279"/>
<path class="l4" d="M1283.72 424.356L1303.15 424.356"/>
<path class="l4" d="M1357.53 408.818L1376.95 408.818"/>
<path class="l4" d="M1307.03 385.51L1318.68 385.51"/>
<path class="l4" d="M1307.03 432.126L1318.68 432.126"/>
<path class="l4" style="fill:none;" d="M1307.03 432.126 A43.6485 43.6485 0 0 0 1307.03 385.51"/>
<path class="l4" style="fill:none;" d="M1357.53 408.818 A52.102 52.102 0 0 0 1318.68 385.51"/>
<path class="l4" style="fill:none;" d="M1318.68 432.126 A52.102 52.102 0 0 0 1357.53 408.818"/>
<path class="l4" style="fill:none;" d="M1299.26 432.126 A43.6485 43.6485 0 0 0 1299.26 385.51"/>
<path class="l4" d="M149.401 226.238L149.401 319.47"/>
<path class="l4" d="M227.094 241.777L227.094 303.932"/>
<path class="l4" d="M149.401 226.238L227.094 241.777"/>
<path class="l4" d="M149.401 319.47L227.094 303.932"/>
<path class="l4" d="M227.094 249.546L242.632 249.546"/>
<path class="l4" d="M227.094 296.162L242.632 296.162"/>
<path class="l4" d="M133.862 249.546L149.401 249.546"/>
<path class="l4" d="M133.862 296.162L149.401 296.162"/>
<path class="l4" d="M164.939 241.777L164.939 257.316"/>
<path class="l4" d="M157.17 249.546L172.708 249.546"/>
<path class="l4" d="M157.17 296.162L172.708 296.162"/>
<path class="l4" d="M211.555 241.777L211.555 257.316"/>
<path class="l4" d="M203.786 249.546L219.324 249.546"/>
<path class="l4" d="M203.786 296.162L219.324 296.162"/>
<path class="l4" d="M188.247 210.7L188.247 234.008"/>
<path class="l4" d="M188.247 311.701L188.247 335.009"/>
<path class="l4" d="M289.248 226.238L289.248 319.47"/>
<path class="l4" d="M366.942 241.777L366.942 303.932"/>
<path class="l4" d="M289.248 226.238L366.942 241.777"/>
<path class="l4" d="M289.248 319.47L366.942 303.932"/>
<path class="l4" d="M366.942 249.546L382.48 249.546"/>
<path class="l4" d="M366.942 296.162L382.48 296.162"/>
<path class="l4" d="M273.71 249.546L289.248 249.546"/>
<path class="l4" d="M273.71 296.162L289.248 296.162"/>
<path class="l4" d="M304.787 241.777L304.787 257.316"/>
<path class="l4" d="M297.018 249.546L312.556 249.546"/>
<path class="l4" d="M297.018 296.162L312.556 296.162"/>
<path class="l4" d="M351.403 241.777L351.403 257.316"/>
<path class="l4" d="M343.634 249.546L359.172 249.546"/>
<path class="l4" d="M343.634 296.162L359.172 296.162"/>
<path class="l4" d="M328.095 210.7L328.095 234.008"/>
<path class="l4" d="M328.095 311.701L328.095 335.009"/>
<path class="l4" d="M429.096 226.238L429.096 319.47"/>
<path class="l4" d="M506.789 241.777L506.789 303.932"/>
<path class="l4" d="M429.096 226.238L506.789 241.777"/>
<path class="l4" d="M429.096 319.47L506.789 303.932"/>
<path class="l4" d="M506.789 249.546L522.328 249.546"/>
<path class="l4" d="M506.789 296.162L522.328 296.162"/>
<path class="l4" d="M413.558 249.546L429.096 249.546"/>
<path class="l4" d="M413.558 296.162L429.096 296.162"/>
<path class="l4" d="M444.635 241.777L444.635 257.316"/>
<path class="l4" d="M436.866 249.546L452.404 249.546"/>
<path class="l4" d="M436.866 296.162L452.404 296.162"/>
<path class="l4" d="M491.251 241.777L491.251 257.316"/>
<path class="l4" d="M483.482 249.546L499.02 249.546"/>
<path class="l4" d="M483.482 296.162L499.02 296.162"/>
<path class="l4" d="M467.943 210.7L467.943 234.008"/>
<path class="l4" d="M467.943 311.701L467.943 335.009"/>
<path class="l4" d="M568.944 226.238L568.944 319.47"/>
<path class="l4" d="M646.637 241.777L646.637 303.932"/>
<path class="l4" d="M568.944 226.238L646.637 241.777"/>
<path class="l4" d="M568.944 319.47L646.637 303.932"/>
<path class="l4" d="M646.637 249.546L662.176 249.546"/>
<path class="l4" d="M646.637 296.162L662.176 296.162"/>
<path class="l4" d="M553.405 249.546L568.944 249.546"/>
<path class="l4" d="M553.405 296.162L568.944 296.162"/>
<path class="l4" d="M584.483 241.777L584.483 257.316"/>
<path class="l4" d="M576.713 249.546L592.252 249.546"/>
<path class="l4" d="M576.713 296.162L592.252 296.162"/>
<path class="l4" d="M631.099 241.777L631.099 257.316"/>
<path class="l4" d="M623.329 249.546L638.868 249.546"/>
<path class="l4" d="M623.329 296.162L638.868 296.162"/>
<path class="l4" d="M607.791 210.7L607.791 234.008"/>
<path class="l4" d="M607.791 311.701L607.791 335.009"/>
<path class="l4" d="M708.792 226.238L708.792 319.47"/>
<path class="l4" d="M786.485 241.777L786.485 303.932"/>
<path class="l4" d="M708.792 226.238L786.485 241.777"/>
<path class="l4" d="M708.792 319.47L786.485 303.932"/>
<path class="l4" d="M786.485 249.546L802.024 249.546"/>
<path class="l4" d="M786.485 296.162L802.024 296.162"/>
<path class="l4" d="M693.253 249.546L708.792 249.546"/>
<path class="l4" d="M693.253 296.162L708.792 296.162"/>
<path class="l4" d="M724.331 241.777L724.331 257.316"/>
<path class="l4" d="M716.561 249.546L732.1 249.546"/>
<path class="l4" d="M716.561 296.162L732.1 296.162"/>
<path class="l4" d="M770.947 241.777L770.947 257.316"/>
<path class="l4" d="M763.177 249.546L778.716 249.546"/>
<path class="l4" d="M763.177 296.162L778.716 296.162"/>
<path class="l4" d="M747.639 210.7L747.639 234.008"/>
<path class="l4" d="M747.639 311.701L747.639 335.009"/>
<path class="l4" d="M467.943 94.1599L467.943 109.699"/>
<path class="l4" d="M460.174 94.1599L475.712 94.1599"/>
<path class="l4" d="M180.478 428.241L180.478 459.318"/>
<path class="l4" d="M180.478 428.241L211.555 443.78"/>
<path class="l4" d="M180.478 459.318L211.555 443.78"/>
<path class="l4" d="M164.939 443.78L180.478 443.78"/>
<path class="l4" d="M164.939 474.857L196.016 474.857"/>
<path class="l4" d="M196.016 451.549L196.016 474.857"/>
<path class="l4" d="M219.324 443.78L227.094 443.78"/>
<circle class="l4" cx="215.44" cy="443.78" r="3.88466" style="fill:none;"/>
<path class="l4" d="M106.669 424.356L106.669 439.895"/>
<path class="l4" d="M98.8999 424.356L114.439 424.356"/>
<path class="l5" d="M376.653 476.799L380.538 476.799L380.538 480.684L376.653 480.684L376.653 476.799z"/>
<path class="l5" d="M423.269 476.799L427.154 476.799L427.154 480.684L423.269 480.684L423.269 476.799z"/>
<path class="l5" d="M434.923 492.338L438.808 492.338L438.808 496.222L434.923 496.222L434.923 492.338z"/>
<path class="l5" d="M434.923 538.954L438.808 538.954L438.808 542.838L434.923 542.838L434.923 538.954z"/>
<path class="l5" d="M434.923 558.377L438.808 558.377L438.808 562.262L434.923 562.262L434.923 558.377z"/>
<path class="l5" d="M347.518 478.741L342.662 474.857L336.35 474.857L336.35 482.626L342.662 482.626L347.518 478.741"/>
<path class="l5" d="M347.511 478.734L347.526 478.734L347.526 478.749L347.511 478.749L347.511 478.734z"/>
<path class="l7" d="M1399.29 77.6501L1401.23 77.6501L1401.23 79.5924L1399.29 79.5924L1399.29 77.6501z"/>
<path class="l5" d="M932.16 107.756L936.045 107.756L936.045 111.641L932.16 111.641L932.16 107.756z"/>
<path class="l5" d="M932.16 123.295L936.045 123.295L936.045 127.18L932.16 127.18L932.16 123.295z"/>
<path class="l5" d="M1072.01 107.756L1075.89 107.756L1075.89 111.641L1072.01 111.641L1072.01 107.756z"/>
<path class="l5" d="M1103.09 92.2175L1106.97 92.2175L1106.97 96.1022L1103.09 96.1022L1103.09 92.2175z"/>
<path class="l5" d="M1103.09 107.756L1106.97 107.756L1106.97 111.641L1103.09 111.641L1103.09 107.756z"/>
<path class="l5" d="M1242.93 92.2175L1246.82 92.2175L1246.82 96.1022L1242.93 96.1022L1242.93 92.2175z"/>
<path class="l5" d="M1274.01 61.1402L1277.9 61.1402L1277.9 65.0249L1274.01 65.0249L1274.01 61.1402z"/>
<path class="l5" d="M1274.01 92.2175L1277.9 92.2175L1277.9 96.1022L1274.01 96.1022L1274.01 92.2175z"/>
<path class="l5" d="M1367.24 76.6789L1371.13 76.6789L1371.13 80.5635L1367.24 80.5635L1367.24 76.6789z"/>
<path class="l5" d="M925.362 108.727L927.304 108.727L927.304 110.67L925.362 110.67L925.362 108.727z"/>
<path class="l5" d="M1104.06 69.8807L1106 69.8807L1106 71.8231L1104.06 71.8231L1104.06 69.8807z"/>
<path class="l5" d="M1080.75 81.5347L1082.69 81.5347L1082.69 83.477L1080.75 83.477L1080.75 81.5347z"/>
<path class="l5" d="M1251.67 93.1887L1253.62 93.1887L1253.62 95.131L1251.67 95.131L1251.67 93.1887z"/>
<path class="l5" d="M925.362 124.266L927.304 124.266L927.304 126.208L925.362 126.208L925.362 124.266z"/>
<path class="l8" d="M1403.18 163.113L1405.12 163.113L1405.12 165.055L1403.18 165.055L1403.18 163.113z"/>
<path class="l5" d="M936.045 193.219L939.929 193.219L939.929 197.103L936.045 197.103L936.045 193.219z"/>
<path class="l5" d="M936.045 208.757L939.929 208.757L939.929 212.642L936.045 212.642L936.045 208.757z"/>
<path class="l5" d="M1075.89 193.219L1079.78 193.219L1079.78 197.103L1075.89 197.103L1075.89 193.219z"/>
<path class="l5" d="M1106.97 177.68L1110.85 177.68L1110.85 181.565L1106.97 181.565L1106.97 177.68z"/>
<path class="l5" d="M1106.97 193.219L1110.85 193.219L1110.85 197.103L1106.97 197.103L1106.97 193.219z"/>
<path class="l5" d="M1246.82 177.68L1250.7 177.68L1250.7 181.565L1246.82 181.565L1246.82 177.68z"/>
<path class="l5" d="M1277.9 146.603L1281.78 146.603L1281.78 150.487L1277.9 150.487L1277.9 146.603z"/>
<path class="l5" d="M1277.9 177.68L1281.78 177.68L1281.78 181.565L1277.9 181.565L1277.9 177.68z"/>
<path class="l5" d="M1371.13 162.141L1375.01 162.141L1375.01 166.026L1371.13 166.026L1371.13 162.141z"/>
<path class="l5" d="M929.247 194.19L931.189 194.19L931.189 196.132L929.247 196.132L929.247 194.19z"/>
<path class="l5" d="M1107.94 155.343L1109.88 155.343L1109.88 157.286L1107.94 157.286L1107.94 155.343z"/>
<path class="l5" d="M1084.63 166.997L1086.58 166.997L1086.58 168.94L1084.63 168.94L1084.63 166.997z"/>
<path class="l5" d="M1255.56 178.651L1257.5 178.651L1257.5 180.594L1255.56 180.594L1255.56 178.651z"/>
<path class="l5" d="M929.247 209.729L931.189 209.729L931.189 211.671L929.247 211.671L929.247 209.729z"/>
<path class="l9" d="M1403.18 240.806L1405.12 240.806L1405.12 242.748L1403.18 242.748L1403.18 240.806z"/>
<path class="l5" d="M936.045 270.912L939.929 270.912L939.929 274.797L936.045 274.797L936.045 270.912z"/>
<path class="l5" d="M936.045 286.451L939.929 286.451L939.929 290.335L936.045 290.335L936.045 286.451z"/>
<path class="l5" d="M1075.89 270.912L1079.78 270.912L1079.78 274.797L1075.89 274.797L1075.89 270.912z"/>
<path class="l5" d="M1106.97 255.373L1110.85 255.373L1110.85 259.258L1106.97 259.258L1106.97 255.373z"/>
<path class="l5" d="M1106.97 270.912L1110.85 270.912L1110.85 274.797L1106.97 274.797L1106.97 270.912z"/>
<path class="l5" d="M1246.82 255.373L1250.7 255.373L1250.7 259.258L1246.82 259.258L1246.82 255.373z"/>
<path class="l5" d="M1277.9 224.296L1281.78 224.296L1281.78 228.181L1277.9 228.181L1277.9 224.296z"/>
<path class="l5" d="M1277.9 255.373L1281.78 255.373L1281.78 259.258L1277.9 259.258L1277.9 255.373z"/>
<path class="l5" d="M1371.13 239.835L1375.01 239.835L1375.01 243.719L1371.13 243.719L1371.13 239.835z"/>
<path class="l5" d="M929.247 271.883L931.189 271.883L931.189 273.826L929.247 273.826L929.247 271.883z"/>
<path class="l5" d="M1107.94 233.037L1109.88 233.037L1109.88 234.979L1107.94 234.979L1107.94 233.037z"/>
<path class="l5" d="M1084.63 244.691L1086.58 244.691L1086.58 246.633L1084.63 246.633L1084.63 244.691z"/>
<path class="l5" d="M1255.56 256.345L1257.5 256.345L1257.5 258.287L1255.56 258.287L1255.56 256.345z"/>
<path class="l5" d="M929.247 287.422L931.189 287.422L931.189 289.364L929.247 289.364L929.247 287.422z"/>
<path class="l10" d="M1407.06 326.268L1409 326.268L1409 328.211L1407.06 328.211L1407.06 326.268z"/>
<path class="l5" d="M939.929 356.375L943.814 356.375L943.814 360.259L939.929 360.259L939.929 356.375z"/>
<path class="l5" d="M939.929 371.913L943.814 371.913L943.814 375.798L939.929 375.798L939.929 371.913z"/>
<path class="l5" d="M1079.78 356.375L1083.66 356.375L1083.66 360.259L1079.78 360.259L1079.78 356.375z"/>
<path class="l5" d="M1110.85 340.836L1114.74 340.836L1114.74 344.721L1110.85 344.721L1110.85 340.836z"/>
<path class="l5" d="M1110.85 356.375L1114.74 356.375L1114.74 360.259L1110.85 360.259L1110.85 356.375z"/>
<path class="l5" d="M1250.7 340.836L1254.59 340.836L1254.59 344.721L1250.7 344.721L1250.7 340.836z"/>
<path class="l5" d="M1281.78 309.759L1285.66 309.759L1285.66 313.643L1281.78 313.643L1281.78 309.759z"/>
<path class="l5" d="M1281.78 340.836L1285.66 340.836L1285.66 344.721L1281.78 344.721L1281.78 340.836z"/>
<path class="l5" d="M1375.01 325.297L1378.9 325.297L1378.9 329.182L1375.01 329.182L1375.01 325.297z"/>
<path class="l5" d="M933.131 357.346L935.074 357.346L935.074 359.288L933.131 359.288L933.131 357.346z"/>
<path class="l5" d="M1111.83 318.499L1113.77 318.499L1113.77 320.441L1111.83 320.441L1111.83 318.499z"/>
<path class="l5" d="M1088.52 330.153L1090.46 330.153L1090.46 332.095L1088.52 332.095L1088.52 330.153z"/>
<path class="l5" d="M1259.44 341.807L1261.39 341.807L1261.39 343.749L1259.44 343.749L1259.44 341.807z"/>
<path class="l5" d="M933.131 372.884L935.074 372.884L935.074 374.827L933.131 374.827L933.131 372.884z"/>
<path class="l11" d="M1407.06 407.846L1409 407.846L1409 409.789L1407.06 409.789L1407.06 407.846z"/>
<path class="l5" d="M939.929 437.953L943.814 437.953L943.814 441.837L939.929 441.837L939.929 437.953z"/>
<path class="l5" d="M939.929 453.491L943.814 453.491L943.814 457.376L939.929 457.376L939.929 453.491z"/>
<path class="l5" d="M1079.78 437.953L1083.66 437.953L1083.66 441.837L1079.78 441.837L1079.78 437.953z"/>
<path class="l5" d="M1110.85 422.414L1114.74 422.414L1114.74 426.299L1110.85 426.299L1110.85 422.414z"/>
<path class="l5" d="M1110.85 437.953L1114.74 437.953L1114.74 441.837L1110.85 441.837L1110.85 437.953z"/>
<path class="l5" d="M1250.7 422.414L1254.59 422.414L1254.59 426.299L1250.7 426.299L1250.7 422.414z"/>
<path class="l5" d="M1281.78 391.337L1285.66 391.337L1285.66 395.221L1281.78 395.221L1281.78 391.337z"/>
<path class="l5" d="M1281.78 422.414L1285.66 422.414L1285.66 426.299L1281.78 426.299L1281.78 422.414z"/>
<path class="l5" d="M1375.01 406.875L1378.9 406.875L1378.9 410.76L1375.01 410.76L1375.01 406.875z"/>
<path class="l5" d="M933.131 438.924L935.074 438.924L935.074 440.866L933.131 440.866L933.131 438.924z"/>
<path class="l5" d="M1111.83 400.077L1113.77 400.077L1113.77 402.019L1111.83 402.019L1111.83 400.077z"/>
<path class="l5" d="M1088.52 411.731L1090.46 411.731L1090.46 413.673L1088.52 413.673L1088.52 411.731z"/>
<path class="l5" d="M1259.44 423.385L1261.39 423.385L1261.39 425.327L1259.44 425.327L1259.44 423.385z"/>
<path class="l5" d="M933.131 454.462L935.074 454.462L935.074 456.405L933.131 456.405L933.131 454.462z"/>
<path class="l5" d="M131.92 247.604L135.804 247.604L135.804 251.489L131.92 251.489L131.92 247.604z"/>
<path class="l5" d="M131.92 294.22L135.804 294.22L135.804 298.105L131.92 298.105L131.92 294.22z"/>
<path class="l5" d="M186.305 208.757L190.189 208.757L190.189 212.642L186.305 212.642L186.305 208.757z"/>
<path class="l5" d="M186.305 333.067L190.189 333.067L190.189 336.951L186.305 336.951L186.305 333.067z"/>
<path class="l5" d="M240.69 294.22L244.575 294.22L244.575 298.105L240.69 298.105L240.69 294.22z"/>
<path class="l5" d="M240.69 247.604L244.575 247.604L244.575 251.489L240.69 251.489L240.69 247.604z"/>
<path class="l5" d="M271.767 247.604L275.652 247.604L275.652 251.489L271.767 251.489L271.767 247.604z"/>
<path class="l5" d="M271.767 294.22L275.652 294.22L275.652 298.105L271.767 298.105L271.767 294.22z"/>
<path class="l5" d="M326.153 208.757L330.037 208.757L330.037 212.642L326.153 212.642L326.153 208.757z"/>
<path class="l5" d="M326.153 333.067L330.037 333.067L330.037 336.951L326.153 336.951L326.153 333.067z"/>
<path class="l5" d="M380.538 294.22L384.423 294.22L384.423 298.105L380.538 298.105L380.538 294.22z"/>
<path class="l5" d="M380.538 247.604L384.423 247.604L384.423 251.489L380.538 251.489L380.538 247.604z"/>
<path class="l5" d="M411.615 247.604L415.5 247.604L415.5 251.489L411.615 251.489L411.615 247.604z"/>
<path class="l5" d="M411.615 294.22L415.5 294.22L415.5 298.105L411.615 298.105L411.615 294.22z"/>
<path class="l5" d="M466.001 208.757L469.885 208.757L469.885 212.642L466.001 212.642L466.001 208.757z"/>
<path class="l5" d="M466.001 333.067L469.885 333.067L469.885 336.951L466.001 336.951L466.001 333.067z"/>
<path class="l5" d="M520.386 294.22L524.27 294.22L524.27 298.105L520.386 298.105L520.386 294.22z"/>
<path class="l5" d="M520.386 247.604L524.27 247.604L524.27 251.489L520.386 251.489L520.386 247.604z"/>
<path class="l5" d="M551.463 247.604L555.348 247.604L555.348 251.489L551.463 251.489L551.463 247.604z"/>
<path class="l5" d="M551.463 294.22L555.348 294.22L555.348 298.105L551.463 298.105L551.463 294.22z"/>
<path class="l5" d="M605.848 208.757L609.733 208.757L609.733 212.642L605.848 212.642L605.848 208.757z"/>
<path class="l5" d="M605.848 333.067L609.733 333.067L609.733 336.951L605.848 336.951L605.848 333.067z"/>
<path class="l5" d="M660.234 294.22L664.118 294.22L664.118 298.105L660.234 298.105L660.234 294.22z"/>
<path class="l5" d="M660.234 247.604L664.118 247.604L664.118 251.489L660.234 251.489L660.234 247.604z"/>
<path class="l5" d="M691.311 247.604L695.196 247.604L695.196 251.489L691.311 251.489L691.311 247.604z"/>
<path class="l5" d="M691.311 294.22L695.196 294.22L695.196 298.105L691.311 298.105L691.311 294.22z"/>
<path class="l5" d="M745.696 208.757L749.581 208.757L749.581 212.642L745.696 212.642L745.696 208.757z"/>
<path class="l5" d="M745.696 333.067L749.581 333.067L749.581 336.951L745.696 336.951L745.696 333.067z"/>
<path class="l5" d="M800.082 294.22L803.966 294.22L803.966 298.105L800.082 298.105L800.082 294.22z"/>
<path class="l5" d="M800.082 247.604L803.966 247.604L803.966 251.489L800.082 251.489L800.082 247.604z"/>
<path class="l5" d="M466.001 107.756L469.885 107.756L469.885 111.641L466.001 111.641L466.001 107.756z"/>
<path class="l5" d="M162.997 441.837L166.882 441.837L166.882 445.722L162.997 445.722L162.997 441.837z"/>
<path class="l5" d="M162.997 472.914L166.882 472.914L166.882 476.799L162.997 476.799L162.997 472.914z"/>
<path class="l5" d="M225.151 441.837L229.036 441.837L229.036 445.722L225.151 445.722L225.151 441.837z"/>
<path class="l5" d="M125.121 473.886L127.064 473.886L127.064 475.828L125.121 475.828L125.121 473.886z"/>
<path class="l5" d="M253.315 442.808L255.258 442.808L255.258 444.751L253.315 444.751L253.315 442.808z"/>
<path class="l5" d="M257.2 334.038L259.142 334.038L259.142 335.98L257.2 335.98L257.2 334.038z"/>
<path class="l5" d="M257.2 209.729L259.142 209.729L259.142 211.671L257.2 211.671L257.2 209.729z"/>
<path class="l5" d="M397.048 209.729L398.99 209.729L398.99 211.671L397.048 211.671L397.048 209.729z"/>
<path class="l5" d="M536.896 209.729L538.838 209.729L538.838 211.671L536.896 211.671L536.896 209.729z"/>
<path class="l5" d="M676.743 209.729L678.686 209.729L678.686 211.671L676.743 211.671L676.743 209.729z"/>
<path class="l5" d="M855.438 248.575L857.38 248.575L857.38 250.518L855.438 250.518L855.438 248.575z"/>
<path class="l5" d="M466.972 477.77L468.914 477.77L468.914 479.713L466.972 479.713L466.972 477.77z"/>
<path class="l5" d="M104.727 437.953L108.612 437.953L108.612 441.837L104.727 441.837L104.727 437.953z"/>
<path class="l1" d="M436.866 478.741L436.866 494.28"/>
<path class="l1" d="M436.866 540.896L436.866 560.319"/>
<path class="l1" d="M347.518 478.741L378.596 478.741"/>
<path class="l1" d="M1073.95 109.699L1089.49 109.699"/>
<path class="l1" d="M1244.88 94.1599L1260.41 94.1599"/>
<path class="l7" d="M1353.65 78.6212L1400.26 78.6212"/>
<path class="l1" d="M903.025 109.699L934.102 109.699"/>
<path class="l1" d="M903.025 125.237L934.102 125.237"/>
<path class="l1" d="M1089.49 63.0826L1260.41 63.0826"/>
<path class="l1" d="M1089.49 109.699L1105.03 109.699"/>
<path class="l1" d="M1105.03 70.8519L1105.03 94.1599"/>
<path class="l1" d="M1081.72 63.0826L1089.49 63.0826"/>
<path class="l1" d="M1081.72 63.0826L1081.72 109.699"/>
<path class="l1" d="M1260.41 63.0826L1275.95 63.0826"/>
<path class="l1" d="M1260.41 94.1599L1275.95 94.1599"/>
<path class="l1" d="M1077.83 195.161L1093.37 195.161"/>
<path class="l1" d="M1248.76 179.622L1264.3 179.622"/>
<path class="l8" d="M1357.53 164.084L1404.15 164.084"/>
<path class="l1" d="M906.91 195.161L937.987 195.161"/>
<path class="l1" d="M906.91 210.7L937.987 210.7"/>
<path class="l1" d="M1093.37 148.545L1264.3 148.545"/>
<path class="l1" d="M1093.37 195.161L1108.91 195.161"/>
<path class="l1" d="M1108.91 156.314L1108.91 179.622"/>
<path class="l1" d="M1085.6 148.545L1093.37 148.545"/>
<path class="l1" d="M1085.6 148.545L1085.6 195.161"/>
<path class="l1" d="M1264.3 148.545L1279.84 148.545"/>
<path class="l1" d="M1264.3 179.622L1279.84 179.622"/>
<path class="l1" d="M1077.83 272.854L1093.37 272.854"/>
<path class="l1" d="M1248.76 257.316L1264.3 257.316"/>
<path class="l9" d="M1357.53 241.777L1404.15 241.777"/>
<path class="l1" d="M906.91 272.854L937.987 272.854"/>
<path class="l1" d="M906.91 288.393L937.987 288.393"/>
<path class="l1" d="M1093.37 226.238L1264.3 226.238"/>
<path class="l1" d="M1093.37 272.854L1108.91 272.854"/>
<path class="l1" d="M1108.91 234.008L1108.91 257.316"/>
<path class="l1" d="M1085.6 226.238L1093.37 226.238"/>
<path class="l1" d="M1085.6 226.238L1085.6 272.854"/>
<path class="l1" d="M1264.3 226.238L1279.84 226.238"/>
<path class="l1" d="M1264.3 257.316L1279.84 257.316"/>
<path class="l1" d="M1081.72 358.317L1097.26 358.317"/>
<path class="l1" d="M1252.64 342.778L1268.18 342.778"/>
<path class="l10" d="M1361.42 327.24L1408.03 327.24"/>
<path class="l1" d="M910.794 358.317L941.872 358.317"/>
<path class="l1" d="M910.794 373.856L941.872 373.856"/>
<path class="l1" d="M1097.26 311.701L1268.18 311.701"/>
<path class="l1" d="M1097.26 358.317L1112.8 358.317"/>
<path class="l1" d="M1112.8 319.47L1112.8 342.778"/>
<path class="l1" d="M1089.49 311.701L1097.26 311.701"/>
<path class="l1" d="M1089.49 311.701L1089.49 358.317"/>
<path class="l1" d="M1268.18 311.701L1283.72 311.701"/>
<path class="l1" d="M1268.18 342.778L1283.72 342.778"/>
<path class="l1" d="M1081.72 439.895L1097.26 439.895"/>
<path class="l1" d="M1252.64 424.356L1268.18 424.356"/>
<path class="l11" d="M1361.42 408.818L1408.03 408.818"/>
<path class="l1" d="M910.794 439.895L941.872 439.895"/>
<path class="l1" d="M910.794 455.433L941.872 455.433"/>
<path class="l1" d="M1097.26 393.279L1268.18 393.279"/>
<path class="l1" d="M1097.26 439.895L1112.8 439.895"/>
<path class="l1" d="M1112.8 401.048L1112.8 424.356"/>
<path class="l1" d="M1089.49 393.279L1097.26 393.279"/>
<path class="l1" d="M1089.49 393.279L1089.49 439.895"/>
<path class="l1" d="M1268.18 393.279L1283.72 393.279"/>
<path class="l1" d="M1268.18 424.356L1283.72 424.356"/>
<path class="l1" d="M242.632 249.546L273.71 249.546"/>
<path class="l1" d="M382.48 249.546L413.558 249.546"/>
<path class="l1" d="M522.328 249.546L553.405 249.546"/>
<path class="l1" d="M662.176 249.546L693.253 249.546"/>
<path class="l1" d="M662.176 296.162L693.253 296.162"/>
<path class="l1" d="M522.328 296.162L553.405 296.162"/>
<path class="l1" d="M382.48 296.162L413.558 296.162"/>
<path class="l1" d="M242.632 296.162L273.71 296.162"/>
<path class="l1" d="M188.247 335.009L188.247 358.317"/>
<path class="l1" d="M188.247 358.317L328.095 358.317"/>
<path class="l1" d="M328.095 335.009L328.095 358.317"/>
<path class="l1" d="M328.095 358.317L467.943 358.317"/>
<path class="l1" d="M467.943 335.009L467.943 358.317"/>
<path class="l1" d="M467.943 358.317L607.791 358.317"/>
<path class="l1" d="M607.791 335.009L607.791 358.317"/>
<path class="l1" d="M607.791 358.317L747.639 358.317"/>
<path class="l1" d="M747.639 335.009L747.639 358.317"/>
<path class="l1" d="M188.247 187.392L188.247 210.7"/>
<path class="l1" d="M188.247 187.392L747.639 187.392"/>
<path class="l1" d="M747.639 187.392L747.639 210.7"/>
<path class="l1" d="M607.791 187.392L607.791 210.7"/>
<path class="l1" d="M467.943 187.392L467.943 210.7"/>
<path class="l1" d="M328.095 187.392L328.095 210.7"/>
<path class="l1" d="M802.024 249.546L825.332 249.546"/>
<path class="l1" d="M825.332 140.776L825.332 249.546"/>
<path class="l1" d="M95.0152 140.776L825.332 140.776"/>
<path class="l1" d="M110.554 389.394L825.332 389.394"/>
<path class="l1" d="M825.332 296.162L825.332 389.394"/>
<path class="l1" d="M802.024 296.162L825.332 296.162"/>
<path class="l1" d="M467.943 358.317L467.943 420.472"/>
<path class="l1" d="M467.943 109.699L467.943 187.392"/>
<path class="l1" d="M258.171 210.7L258.171 249.546"/>
<path class="l1" d="M398.019 210.7L398.019 249.546"/>
<path class="l1" d="M537.867 210.7L537.867 249.546"/>
<path class="l1" d="M677.715 210.7L677.715 249.546"/>
<path class="l1" d="M825.332 249.546L856.409 249.546"/>
<path class="l1" d="M258.171 296.162L258.171 335.009"/>
<path class="l1" d="M230.978 443.78L254.286 443.78"/>
<path class="l1" d="M126.093 443.78L164.939 443.78"/>
<path class="l1" d="M126.093 474.857L164.939 474.857"/>
<path class="l1" d="M227.094 443.78L230.978 443.78"/>
<path class="l1" d="M425.212 478.741L467.943 478.741"/>
<path class="l1" d="M467.943 459.318L467.943 478.741"/>
<path class="l1" d="M467.943 420.472L467.943 459.318"/>
<path class="l1" d="M106.669 443.78L126.093 443.78"/>
<path class="l1" d="M106.669 439.895L106.669 443.78"/>
<path class="l1" d="M110.554 296.162L110.554 389.394"/>
<path class="l1" d="M110.554 296.162L133.862 296.162"/>
<path class="l1" d="M95.0152 140.776L95.0152 249.546"/>
<path class="l1" d="M95.0152 249.546L133.862 249.546"/>
<circle class="l1" cx="328.095" cy="358.317" r="3.10773"/>
<circle class="l1" cx="258.171" cy="296.162" r="3.10773"/>
<circle class="l1" cx="398.019" cy="249.546" r="3.10773"/>
<circle class="l1" cx="258.171" cy="249.546" r="3.10773"/>
<circle class="l1" cx="467.943" cy="187.392" r="3.10773"/>
<circle class="l1" cx="328.095" cy="187.392" r="3.10773"/>
<circle class="l1" cx="467.943" cy="187.392" r="3.10773"/>
<circle class="l1" cx="467.943" cy="358.317" r="3.10773"/>
<circle class="l1" cx="467.943" cy="358.317" r="3.10773"/>
<circle class="l1" cx="607.791" cy="358.317" r="3.10773"/>
<circle class="l1" cx="467.943" cy="358.317" r="3.10773"/>
<circle class="l1" cx="328.095" cy="358.317" r="3.10773"/>
<circle class="l1" cx="467.943" cy="358.317" r="3.10773"/>
<circle class="l1" cx="328.095" cy="358.317" r="3.10773"/>
<circle class="l1" cx="436.866" cy="478.741" r="3.10773"/>
<circle class="l1" cx="677.715" cy="249.546" r="3.10773"/>
<circle class="l1" cx="537.867" cy="249.546" r="3.10773"/>
<circle class="l1" cx="825.332" cy="249.546" r="3.10773"/>
<circle class="l1" cx="607.791" cy="187.392" r="3.10773"/>
<circle class="l1" cx="607.791" cy="358.317" r="3.10773"/>
<circle class="l1" cx="607.791" cy="358.317" r="3.10773"/>
<circle class="l1" cx="825.332" cy="249.546" r="3.10773"/>
<circle class="l1" cx="825.332" cy="249.546" r="3.10773"/>
<circle class="l1" cx="1085.6" cy="272.854" r="3.10773"/>
<circle class="l1" cx="1085.6" cy="195.161" r="3.10773"/>
<circle class="l1" cx="1081.72" cy="109.699" r="3.10773"/>
<circle class="l1" cx="1089.49" cy="439.895" r="3.10773"/>
<circle class="l1" cx="1089.49" cy="358.317" r="3.10773"/>
</svg>
